<svg id="Layer_1" data-name="Layer 1" xmlns="http://www.w3.org/2000/svg" xmlns:xlink="http://www.w3.org/1999/xlink" viewBox="0 0 284.85 184.49"><defs><style>.cls-1,.cls-11,.cls-9{fill:none;}.cls-2{fill:#fff;}.cls-3{fill:#fafbfd;}.cls-4{fill:#99a4bd;}.cls-5{fill:#45506b;}.cls-6{clip-path:url(#clip-path);}.cls-7{fill:#6580bf;}.cls-8{fill:#8b7fbb;}.cls-11,.cls-9{stroke-width:0.68px;}.cls-9{stroke:url(#linear-gradient);}.cls-10{fill:#e38fab;}.cls-11{stroke:url(#linear-gradient-2);}</style><clipPath id="clip-path" transform="translate(-362.38 -333.09)"><polygon id="SVGID" class="cls-1" points="572.47 357.54 586.06 352.73 593.33 365.18 579.74 369.99 572.47 357.54"/></clipPath><linearGradient id="linear-gradient" x1="42.38" y1="2346.28" x2="1.44" y2="2346.28" gradientTransform="matrix(0.94, -0.33, -0.5, -0.86, 1770.14, 2468.19)" gradientUnits="userSpaceOnUse"><stop offset="0" stop-color="#b598c7"/><stop offset="1" stop-color="#6f6eb1"/></linearGradient><linearGradient id="linear-gradient-2" x1="27.14" y1="2352.37" x2="4.37" y2="2340.1" gradientTransform="matrix(0.94, -0.33, -0.5, -0.86, 1738.7, 2479.33)" gradientUnits="userSpaceOnUse"><stop offset="0" stop-color="#ebd495"/><stop offset="1" stop-color="#d169a6"/></linearGradient></defs><path class="cls-2" d="M365.77,409.67,581,333.47a7.55,7.55,0,0,1,8.69,3.18l56.71,97a4.78,4.78,0,0,1-2.63,7.19L428.54,517a7.56,7.56,0,0,1-8.69-3.18l-56.71-97A4.77,4.77,0,0,1,365.77,409.67Z" transform="translate(-362.38 -333.09)"/><path class="cls-3" d="M402.38,484l226.5-80.21,17.59,30.08a4.78,4.78,0,0,1-2.63,7.19L428.66,517.2A7.53,7.53,0,0,1,420,514Z" transform="translate(-362.38 -333.09)"/><path class="cls-4" d="M383,417.8a.22.22,0,0,1,.26.09l.16.28-2.47.88-.09-.16a.36.36,0,0,1,0-.11.25.25,0,0,1,0-.12l.54-1.48a2.91,2.91,0,0,0,.12-.35,1.25,1.25,0,0,0,.05-.32,1,1,0,0,0,0-.3,1.15,1.15,0,0,0-.11-.29.9.9,0,0,0-.2-.23.76.76,0,0,0-.23-.13.63.63,0,0,0-.27,0,.86.86,0,0,0-.27.05.66.66,0,0,0-.22.12.55.55,0,0,0-.14.17.36.36,0,0,0-.06.2.55.55,0,0,0,0,.22.15.15,0,0,1,0,.15s-.07.06-.15.07l-.29.05a1.36,1.36,0,0,1-.1-.46.86.86,0,0,1,.09-.39,1,1,0,0,1,.26-.31,1.34,1.34,0,0,1,.41-.22,1.36,1.36,0,0,1,.48-.09,1.22,1.22,0,0,1,.47.06,1.23,1.23,0,0,1,.41.21,1.25,1.25,0,0,1,.31.37,1.12,1.12,0,0,1,.14.37,1.09,1.09,0,0,1,0,.36,1.63,1.63,0,0,1-.08.37c0,.12-.08.25-.12.38l-.43,1.21.19-.12.2-.09Zm.42-2.18a2.69,2.69,0,0,1,.48-.24,1.83,1.83,0,0,1,.55-.1,1.39,1.39,0,0,1,.5.09,1.3,1.3,0,0,1,.41.24,1.47,1.47,0,0,1,.32.38,1.41,1.41,0,0,1,.18.52,1.1,1.1,0,0,1-.07.48,1.13,1.13,0,0,1-.28.39,1.58,1.58,0,0,1-.48.27,1.87,1.87,0,0,1-.34.08l-.32,0-.32,0-.27-.07,0-.25a.14.14,0,0,1,.1-.12h.14l.2,0h.26a.92.92,0,0,0,.31-.07.83.83,0,0,0,.31-.17.56.56,0,0,0,.16-.25.6.6,0,0,0,0-.3,1,1,0,0,0-.13-.33,1.09,1.09,0,0,0-.21-.26.72.72,0,0,0-.27-.15.8.8,0,0,0-.32,0,1.33,1.33,0,0,0-.37.07,2.12,2.12,0,0,0-.52.3l-.37,0-.63-1.7,1.77-.63.11.2a.22.22,0,0,1,0,.19.33.33,0,0,1-.19.14l-1.12.4Zm4.9.81L387,414.05l.3-.11a.14.14,0,0,1,.18.05l.17.21a1.14,1.14,0,0,1,.17-.37.77.77,0,0,1,.35-.25.78.78,0,0,1,.5,0,.9.9,0,0,1,.44.27.78.78,0,0,1,0-.27.63.63,0,0,1,.12-.23,1,1,0,0,1,.18-.17,1.33,1.33,0,0,1,.24-.11.94.94,0,0,1,.4-.07,1,1,0,0,1,.38.07,1.2,1.2,0,0,1,.34.23,1.5,1.5,0,0,1,.28.36l.89,1.52-.5.18-.89-1.52a.83.83,0,0,0-.36-.36.63.63,0,0,0-.45,0,.68.68,0,0,0-.19.11.42.42,0,0,0-.11.16.5.5,0,0,0,0,.21.73.73,0,0,0,.1.25l.89,1.52-.51.18-.89-1.52a.76.76,0,0,0-.35-.36.56.56,0,0,0-.44,0,.58.58,0,0,0-.25.18.81.81,0,0,0-.13.3l1,1.78Zm5.12-3.57a1.12,1.12,0,0,0-.19-.24,1,1,0,0,0-.24-.15.67.67,0,0,0-.28-.06.63.63,0,0,0-.3,0,.61.61,0,0,0-.4.34.79.79,0,0,0,0,.54Zm1.07,1a.82.82,0,0,1-.12.25,1.18,1.18,0,0,1-.18.21l-.25.16a1.59,1.59,0,0,1-.27.12,1.49,1.49,0,0,1-.55.1,1.62,1.62,0,0,1-.54-.1,1.89,1.89,0,0,1-.5-.31,2.19,2.19,0,0,1-.41-.52,1.42,1.42,0,0,1-.19-.49,1.16,1.16,0,0,1,0-.46.9.9,0,0,1,.25-.39,1.16,1.16,0,0,1,.46-.28,1.51,1.51,0,0,1,.48-.08,1.27,1.27,0,0,1,.47.09,1.3,1.3,0,0,1,.42.25,1.5,1.5,0,0,1,.35.43.37.37,0,0,1,.06.15s0,.05-.07.07l-1.71.6a1.72,1.72,0,0,0,.28.35,1.26,1.26,0,0,0,.32.21.8.8,0,0,0,.34.07,1.07,1.07,0,0,0,.35-.06,1.13,1.13,0,0,0,.27-.14.78.78,0,0,0,.16-.15l.11-.13a.13.13,0,0,1,.08-.07.1.1,0,0,1,.12,0Zm-.1-2.43,1.4,2.38-.5.18-1.4-2.39Zm-.34-.78a.39.39,0,0,1,.05.14.69.69,0,0,1,0,.13.61.61,0,0,1-.07.1.37.37,0,0,1-.12.07l-.15,0-.15,0-.13-.08a.52.52,0,0,1-.1-.11.33.33,0,0,1,0-.13.28.28,0,0,1,0-.13.41.41,0,0,1,.07-.11.35.35,0,0,1,.12-.07.34.34,0,0,1,.15,0l.15,0,.13.07A.35.35,0,0,1,394.09,410.62Zm5.68,1.24a.22.22,0,0,1,.16,0,.21.21,0,0,1,.11.1l.16.27-2.47.88-.09-.16a.3.3,0,0,1,0-.1.25.25,0,0,1,0-.12l.54-1.49a2.91,2.91,0,0,0,.12-.35,1.77,1.77,0,0,0,.05-.32.93.93,0,0,0,0-.29,1,1,0,0,0-.11-.29.76.76,0,0,0-.2-.23.56.56,0,0,0-.24-.13.75.75,0,0,0-.26,0,1.28,1.28,0,0,0-.27.05.91.91,0,0,0-.22.13.46.46,0,0,0-.14.17.36.36,0,0,0-.06.2.57.57,0,0,0,0,.22.19.19,0,0,1,0,.15s-.07.05-.15.07l-.29.05a1.42,1.42,0,0,1-.1-.46.87.87,0,0,1,.09-.4,1,1,0,0,1,.26-.31,1.6,1.6,0,0,1,.41-.22,1.36,1.36,0,0,1,.48-.09,1.22,1.22,0,0,1,.47.06,1.49,1.49,0,0,1,.41.22,1.23,1.23,0,0,1,.31.36,1.21,1.21,0,0,1,.14.37,1.15,1.15,0,0,1,0,.37,1.76,1.76,0,0,1-.08.37c0,.12-.08.25-.12.38l-.43,1.2.19-.12.2-.09Zm2.55-2.41a3.08,3.08,0,0,1,.34.8,1.42,1.42,0,0,1,0,.64,1,1,0,0,1-.24.47,1.29,1.29,0,0,1-.47.29,1.65,1.65,0,0,1-.59.08,1.68,1.68,0,0,1-.6-.16,2.2,2.2,0,0,1-.6-.44,3.84,3.84,0,0,1-.9-1.53,1.42,1.42,0,0,1,0-.64,1,1,0,0,1,.24-.47,1.17,1.17,0,0,1,.47-.29,1.26,1.26,0,0,1,.58-.08,1.5,1.5,0,0,1,.61.16,2.2,2.2,0,0,1,.6.44A3.12,3.12,0,0,1,402.32,409.45Zm-.52.18a3.72,3.72,0,0,0-.44-.61,2.13,2.13,0,0,0-.43-.35.86.86,0,0,0-.39-.13.83.83,0,0,0-.35,0,.69.69,0,0,0-.27.17.55.55,0,0,0-.13.32,1,1,0,0,0,.06.47,3.33,3.33,0,0,0,.3.67,4.22,4.22,0,0,0,.44.61,2.42,2.42,0,0,0,.42.35,1.07,1.07,0,0,0,.4.12.82.82,0,0,0,.35,0,.8.8,0,0,0,.27-.18.52.52,0,0,0,.13-.31,1.09,1.09,0,0,0-.06-.48A3,3,0,0,0,401.8,409.63Zm3.93.12a.19.19,0,0,1,.15,0,.23.23,0,0,1,.12.1l.16.28-2.48.87-.09-.16a.17.17,0,0,1,0-.1.17.17,0,0,1,0-.12l.54-1.48c0-.13.08-.25.11-.36a1.88,1.88,0,0,0,.06-.31,1,1,0,0,0,0-.3.79.79,0,0,0-.11-.29.73.73,0,0,0-.19-.23.71.71,0,0,0-.24-.13.75.75,0,0,0-.26,0,.88.88,0,0,0-.27.06.71.71,0,0,0-.23.12.58.58,0,0,0-.14.17.66.66,0,0,0-.06.2.89.89,0,0,0,0,.22.23.23,0,0,1,0,.15.26.26,0,0,1-.15.07l-.29,0a1.16,1.16,0,0,1-.1-.46.87.87,0,0,1,.09-.4.94.94,0,0,1,.26-.31,1.45,1.45,0,0,1,.41-.22,2,2,0,0,1,.48-.09,1.7,1.7,0,0,1,.46.06,1.25,1.25,0,0,1,.41.22,1.12,1.12,0,0,1,.32.36,1.21,1.21,0,0,1,.14.37,1.15,1.15,0,0,1,0,.37,1.72,1.72,0,0,1-.07.37c0,.12-.08.25-.13.38l-.42,1.2.19-.12.2-.09Zm2.54-2.41a2.83,2.83,0,0,1,.35.8,1.78,1.78,0,0,1,0,.64.9.9,0,0,1-.25.47,1.25,1.25,0,0,1-.46.29,1.68,1.68,0,0,1-.59.08,1.54,1.54,0,0,1-.61-.16,2.55,2.55,0,0,1-.6-.44,4.08,4.08,0,0,1-.55-.73,3.23,3.23,0,0,1-.34-.8,1.42,1.42,0,0,1,0-.64.87.87,0,0,1,.23-.47,1.25,1.25,0,0,1,.47-.29,1.48,1.48,0,0,1,.59-.08,1.54,1.54,0,0,1,.61.16,2.55,2.55,0,0,1,.6.44A3.32,3.32,0,0,1,408.27,407.34Zm-.52.18a3.1,3.1,0,0,0-.44-.61,1.86,1.86,0,0,0-.42-.35,1.12,1.12,0,0,0-.39-.13.81.81,0,0,0-.35.05.62.62,0,0,0-.27.17.56.56,0,0,0-.14.32,1.49,1.49,0,0,0,.06.48,3.7,3.7,0,0,0,.31.66,3.57,3.57,0,0,0,.44.61,1.86,1.86,0,0,0,.42.35.92.92,0,0,0,.39.12.81.81,0,0,0,.35,0A.64.64,0,0,0,408,409a.5.5,0,0,0,.14-.31,1.41,1.41,0,0,0-.06-.47A3.45,3.45,0,0,0,407.75,407.52Zm3-1.95a1.52,1.52,0,0,1,1.11,0,1.75,1.75,0,0,1,.48.3,1.83,1.83,0,0,1,.38.48,1.59,1.59,0,0,1,.21.54.82.82,0,0,1,0,.47.9.9,0,0,1-.25.39,1.42,1.42,0,0,1-.47.27,1.63,1.63,0,0,1-.57.1,1.41,1.41,0,0,1-.54-.11,1.5,1.5,0,0,1-.48-.29,2.28,2.28,0,0,1-.39-.48,1.67,1.67,0,0,1-.21-.54,1,1,0,0,1,0-.48.82.82,0,0,1,.25-.39A1.42,1.42,0,0,1,410.75,405.57Zm1.23,2.1a.54.54,0,0,0,.42-.42,1.12,1.12,0,0,0-.19-.71,1.4,1.4,0,0,0-.56-.57.83.83,0,0,0-.69,0,.55.55,0,0,0-.42.43,1.13,1.13,0,0,0,.19.71,1.46,1.46,0,0,0,.56.57A.83.83,0,0,0,412,407.67Zm2-.31L412.59,405l.3-.11a.16.16,0,0,1,.18.05l.17.21a1,1,0,0,1,.17-.37.65.65,0,0,1,.35-.24.72.72,0,0,1,.5,0,1.07,1.07,0,0,1,.44.27.78.78,0,0,1,0-.27.82.82,0,0,1,.11-.23.6.6,0,0,1,.19-.16,1.09,1.09,0,0,1,.64-.19,1,1,0,0,1,.38.07,1.2,1.2,0,0,1,.34.23,1.72,1.72,0,0,1,.28.36l.89,1.52-.5.18-.89-1.52a.84.84,0,0,0-.37-.36.58.58,0,0,0-.45,0,.52.52,0,0,0-.18.1.42.42,0,0,0-.11.16.41.41,0,0,0,0,.22.54.54,0,0,0,.1.24l.89,1.53-.51.17-.89-1.52a.88.88,0,0,0-.36-.36.58.58,0,0,0-.43,0,.52.52,0,0,0-.25.18.66.66,0,0,0-.13.31l1,1.77Zm7.61-3.12.2.35-2,.7-.2-.35.78-.27-1.3-2.21-.12-.23-.34.71a.1.1,0,0,1-.05.06l-.07,0h-.07l-.05,0-.28-.14.6-1.27.4-.14,1.78,3Zm2.83-1.11a.22.22,0,0,1,.16,0,.21.21,0,0,1,.11.1l.16.28-2.47.87-.09-.16a.3.3,0,0,1,0-.1.25.25,0,0,1,0-.12l.54-1.48a3.79,3.79,0,0,0,.12-.36,1.81,1.81,0,0,0,.05-.31,1,1,0,0,0,0-.3,1,1,0,0,0-.11-.29.76.76,0,0,0-.2-.23.56.56,0,0,0-.24-.13.75.75,0,0,0-.26,0,.88.88,0,0,0-.27.06.66.66,0,0,0-.22.12.46.46,0,0,0-.14.17.36.36,0,0,0-.06.2.57.57,0,0,0,0,.22.15.15,0,0,1,0,.15.21.21,0,0,1-.15.07l-.29,0a1.42,1.42,0,0,1-.1-.46.87.87,0,0,1,.09-.4,1.08,1.08,0,0,1,.26-.31,1.6,1.6,0,0,1,.41-.22,2,2,0,0,1,.48-.09,1.78,1.78,0,0,1,.47.06,1.49,1.49,0,0,1,.41.22,1.23,1.23,0,0,1,.31.36,1.21,1.21,0,0,1,.14.37,1.15,1.15,0,0,1,0,.37,1.76,1.76,0,0,1-.08.37c0,.12-.08.25-.12.38l-.43,1.2.19-.12.2-.09Zm.81-.09a.65.65,0,0,1,0-.13.49.49,0,0,1,0-.12.41.41,0,0,1,.07-.11.35.35,0,0,1,.12-.07.36.36,0,0,1,.15,0,.35.35,0,0,1,.14,0,.33.33,0,0,1,.13.07.35.35,0,0,1,.1.11.22.22,0,0,1,0,.13.28.28,0,0,1,0,.13.36.36,0,0,1-.07.1.35.35,0,0,1-.12.07.34.34,0,0,1-.14,0l-.15,0a.57.57,0,0,1-.13-.08A.52.52,0,0,1,425.23,403Zm2.95-2.75a2.77,2.77,0,0,1,.34.8,1.42,1.42,0,0,1,0,.64.82.82,0,0,1-.24.47,1.21,1.21,0,0,1-.46.29,1.48,1.48,0,0,1-.59.08,1.5,1.5,0,0,1-.61-.16,2.55,2.55,0,0,1-.6-.44,3.66,3.66,0,0,1-.55-.73,2.89,2.89,0,0,1-.34-.8,1.61,1.61,0,0,1,0-.64,1,1,0,0,1,.24-.47,1.25,1.25,0,0,1,.47-.29,1.46,1.46,0,0,1,.59-.08,1.58,1.58,0,0,1,.61.16,2.55,2.55,0,0,1,.6.44A3.66,3.66,0,0,1,428.18,400.29Zm-.52.18a3.57,3.57,0,0,0-.44-.61,1.86,1.86,0,0,0-.42-.35,1.12,1.12,0,0,0-.39-.13,1,1,0,0,0-.35.05.73.73,0,0,0-.28.17.62.62,0,0,0-.13.32,1.49,1.49,0,0,0,.06.48,3.7,3.7,0,0,0,.31.66,3.57,3.57,0,0,0,.44.61,1.86,1.86,0,0,0,.42.35.88.88,0,0,0,.39.12.81.81,0,0,0,.35,0,.64.64,0,0,0,.27-.18.49.49,0,0,0,.13-.31,1.16,1.16,0,0,0,0-.47A3.45,3.45,0,0,0,427.66,400.47Zm3.5-1.23a2.77,2.77,0,0,1,.34.8,1.42,1.42,0,0,1,0,.64.93.93,0,0,1-.24.46,1.07,1.07,0,0,1-.47.29,1.44,1.44,0,0,1-.59.09,1.51,1.51,0,0,1-.6-.17,2,2,0,0,1-.6-.44,3.1,3.1,0,0,1-.55-.73,3.14,3.14,0,0,1-.35-.8,1.42,1.42,0,0,1,0-.64.93.93,0,0,1,.24-.46,1.07,1.07,0,0,1,.47-.29,1.44,1.44,0,0,1,.58-.09,1.6,1.6,0,0,1,.62.17,2.3,2.3,0,0,1,.6.44A3.39,3.39,0,0,1,431.16,399.24Zm-.52.18a3.72,3.72,0,0,0-.44-.61,2,2,0,0,0-.42-.35.94.94,0,0,0-.4-.13,1,1,0,0,0-.35,0,.8.8,0,0,0-.27.18.52.52,0,0,0-.13.32,1,1,0,0,0,.06.47,3.05,3.05,0,0,0,.3.66,3.86,3.86,0,0,0,.44.62,2,2,0,0,0,.42.34.94.94,0,0,0,.4.13,1,1,0,0,0,.35,0,.71.71,0,0,0,.27-.18.52.52,0,0,0,.13-.31,1.09,1.09,0,0,0-.06-.48A2.63,2.63,0,0,0,430.64,399.42Z" transform="translate(-362.38 -333.09)"/><path class="cls-5" d="M391,424.7l.76,1.3-3.26,1.15,1.08,1.85,2.71-1,.77,1.3-2.72,1,1.66,2.83-1.86.66-4.25-7.28Zm4.23.94a3.44,3.44,0,0,1,1.12-.2,2.77,2.77,0,0,1,1.07.18,2.92,2.92,0,0,1,1,.56,3.57,3.57,0,0,1,.78.93,2.77,2.77,0,0,1,.15.29.4.4,0,0,1,0,.2.15.15,0,0,1-.07.13.52.52,0,0,1-.17.09L395.81,429a2.16,2.16,0,0,0,1,.79,1.61,1.61,0,0,0,1.06,0,1.38,1.38,0,0,0,.47-.25,2,2,0,0,0,.3-.27l.22-.26a.74.74,0,0,1,.25-.17.52.52,0,0,1,.39,0l.81.38a1.94,1.94,0,0,1-.3.65,2.43,2.43,0,0,1-.47.49,3,3,0,0,1-.56.36,4.83,4.83,0,0,1-.58.25,3.65,3.65,0,0,1-1.22.22A3.4,3.4,0,0,1,396,431a4,4,0,0,1-1.13-.65,4.39,4.39,0,0,1-.93-1.13,3,3,0,0,1-.38-1.06,2.28,2.28,0,0,1,.08-1,2.22,2.22,0,0,1,.55-.86A2.84,2.84,0,0,1,395.19,425.64Zm.66,1.06a.88.88,0,0,0-.61.52,1.22,1.22,0,0,0,.06.85l2.11-.75a2,2,0,0,0-.26-.34,1.48,1.48,0,0,0-.35-.25,1.24,1.24,0,0,0-.44-.11A1.18,1.18,0,0,0,395.85,426.7Zm5.27-3.16a3.75,3.75,0,0,1,1.12-.21,3,3,0,0,1,1.08.19,3.13,3.13,0,0,1,1,.56,3.36,3.36,0,0,1,.77.93,2,2,0,0,1,.15.29.42.42,0,0,1,.05.2.24.24,0,0,1-.07.13l-.17.09-3.26,1.16a2.09,2.09,0,0,0,1,.79,1.64,1.64,0,0,0,1.07,0,1.6,1.6,0,0,0,.47-.25,2.56,2.56,0,0,0,.29-.27l.22-.26a.78.78,0,0,1,.26-.17.46.46,0,0,1,.38,0l.82.38a2,2,0,0,1-.31.65,2.67,2.67,0,0,1-.46.49,3.33,3.33,0,0,1-.56.36,5,5,0,0,1-.59.25,3.87,3.87,0,0,1-1.22.22,3.44,3.44,0,0,1-1.22-.21,3.55,3.55,0,0,1-1.12-.65,4.23,4.23,0,0,1-.93-1.13,2.86,2.86,0,0,1-.39-1.05,2.28,2.28,0,0,1,.08-1,2.17,2.17,0,0,1,.56-.86A2.72,2.72,0,0,1,401.12,423.54Zm.66,1.06a.9.9,0,0,0-.61.52,1.23,1.23,0,0,0,.07.85l2.11-.75a1.68,1.68,0,0,0-.27-.34,1.12,1.12,0,0,0-.35-.25,1.18,1.18,0,0,0-.43-.11A1.09,1.09,0,0,0,401.78,424.6Zm9.9,1.55a.52.52,0,0,1-.3,0,.55.55,0,0,1-.26-.14l-.36-.35a2.65,2.65,0,0,1-.18.42,2,2,0,0,1-.27.38,2,2,0,0,1-.38.31,2.59,2.59,0,0,1-.5.24,2.08,2.08,0,0,1-.93.11,2.48,2.48,0,0,1-.95-.29,3.67,3.67,0,0,1-.91-.67,5,5,0,0,1-.81-1.07,3.84,3.84,0,0,1-.46-1.14,2.39,2.39,0,0,1,0-1,1.8,1.8,0,0,1,.44-.84,2,2,0,0,1,.86-.56,2.27,2.27,0,0,1,.81-.14,3,3,0,0,1,.73.11l-1.53-2.62,1.69-.6,4.37,7.48Zm-2.36-.5a2.44,2.44,0,0,0,.32-.15,1.07,1.07,0,0,0,.22-.2.91.91,0,0,0,.15-.23,2,2,0,0,0,.1-.29l-1.29-2.2a1.58,1.58,0,0,0-.58-.12,1.52,1.52,0,0,0-.51.09.88.88,0,0,0-.38.24.71.71,0,0,0-.18.39,1.5,1.5,0,0,0,.06.57,3.61,3.61,0,0,0,.34.75,4.37,4.37,0,0,0,.47.66,1.8,1.8,0,0,0,.45.4,1,1,0,0,0,.42.14A1.13,1.13,0,0,0,409.32,425.65Zm4.72-.34-4.37-7.47,1.69-.6,1.66,2.84a2,2,0,0,1,.45-.7,2,2,0,0,1,.84-.51,2.21,2.21,0,0,1,.92-.12,2.61,2.61,0,0,1,.95.29,3.49,3.49,0,0,1,.91.67,4.7,4.7,0,0,1,.81,1.06,3.56,3.56,0,0,1,.45,1.14,2.44,2.44,0,0,1,0,1,1.88,1.88,0,0,1-.43.84,2.09,2.09,0,0,1-.86.55,1.83,1.83,0,0,1-.48.11,2.17,2.17,0,0,1-.44,0,2.84,2.84,0,0,1-.42-.09l-.42-.16.09.28a.28.28,0,0,1,0,.27.41.41,0,0,1-.23.16Zm.37-5.07a1.6,1.6,0,0,0-.32.15,1.45,1.45,0,0,0-.23.19.72.72,0,0,0-.14.24,2,2,0,0,0-.1.29l1.29,2.2a1.47,1.47,0,0,0,1.09,0,1,1,0,0,0,.38-.23.88.88,0,0,0,.18-.39,1.46,1.46,0,0,0-.06-.57,3.45,3.45,0,0,0-.34-.76,4,4,0,0,0-.47-.67,2.06,2.06,0,0,0-.45-.38,1,1,0,0,0-.43-.15A.79.79,0,0,0,414.41,420.24Zm9.86,1.45a.91.91,0,0,1-.4.07.63.63,0,0,1-.34-.18l-.29-.24c-.08.16-.16.3-.24.43a2.48,2.48,0,0,1-.28.36,1.9,1.9,0,0,1-.38.29,3,3,0,0,1-1.25.39,2,2,0,0,1-.7-.09,1.74,1.74,0,0,1-.6-.32,2,2,0,0,1-.48-.58,1.28,1.28,0,0,1-.18-.62,1.2,1.2,0,0,1,.22-.71,3,3,0,0,1,.78-.76,6.82,6.82,0,0,1,1.51-.75l-.13-.22a1.35,1.35,0,0,0-.59-.58.94.94,0,0,0-.7,0,1.78,1.78,0,0,0-.46.23,3.18,3.18,0,0,0-.26.26l-.21.24a.85.85,0,0,1-.3.18.7.7,0,0,1-.35,0,1,1,0,0,1-.3-.13l-.59-.37a2.87,2.87,0,0,1,.77-1,4,4,0,0,1,1.23-.68,2.79,2.79,0,0,1,1-.17,2.55,2.55,0,0,1,.95.18,2.67,2.67,0,0,1,.81.48,3.2,3.2,0,0,1,.64.77l1.89,3.24Zm-2.49-.26a1.25,1.25,0,0,0,.51-.3,1.52,1.52,0,0,0,.3-.52l-.42-.72a5.36,5.36,0,0,0-.79.38,1.6,1.6,0,0,0-.43.33.53.53,0,0,0-.15.3.56.56,0,0,0,.08.27.58.58,0,0,0,.38.32A.9.9,0,0,0,421.78,421.43Zm6.24-5.84a.69.69,0,0,1-.07.19.32.32,0,0,1-.17.12.58.58,0,0,1-.26,0l-.3,0a1.45,1.45,0,0,0-.37,0,1.38,1.38,0,0,0-.45.09,1.16,1.16,0,0,0-.48.3.81.81,0,0,0-.19.43,1.43,1.43,0,0,0,.06.56,2.84,2.84,0,0,0,.3.65,2.61,2.61,0,0,0,1,1,1.33,1.33,0,0,0,1.1.09,1.13,1.13,0,0,0,.43-.23,1,1,0,0,0,.2-.25l.13-.23a.39.39,0,0,1,.22-.17.5.5,0,0,1,.38,0l.82.38a2.42,2.42,0,0,1-.29.65,2.51,2.51,0,0,1-.44.48,2.66,2.66,0,0,1-.53.34,4.7,4.7,0,0,1-.57.25,3.06,3.06,0,0,1-1.1.17,3.43,3.43,0,0,1-1.13-.22,3.84,3.84,0,0,1-1.06-.65,4,4,0,0,1-.87-1.06,3.19,3.19,0,0,1-.43-1.11,2.09,2.09,0,0,1,0-1,2,2,0,0,1,.56-.88,3,3,0,0,1,1.1-.64,3.49,3.49,0,0,1,1.28-.22,4,4,0,0,1,1.24.25Zm.85-4.55,2.45,4.19.25-.09a.49.49,0,0,0,.22-.13.37.37,0,0,0,.08-.2l.22-1.84a.41.41,0,0,1,.1-.26.67.67,0,0,1,.3-.18L434,412l-.38,2.36a1.4,1.4,0,0,1-.09.31,1.75,1.75,0,0,1-.16.27,2.58,2.58,0,0,1,.69.3l3,1.92-1.53.54a1.23,1.23,0,0,1-.36.06.81.81,0,0,1-.35-.12l-2.14-1.46a.54.54,0,0,0-.25-.1.73.73,0,0,0-.27,0l-.33.12,1.35,2.29-1.7.6-4.37-7.48Zm13.6,2.59a1.57,1.57,0,0,0,.6-.34,1.2,1.2,0,0,0,.31-.5,1.3,1.3,0,0,0,0-.62,2.26,2.26,0,0,0-.29-.73l-2.52-4.31,1.84-.65,2.52,4.31a3.66,3.66,0,0,1,.48,1.32,2.41,2.41,0,0,1-.11,1.2,2.53,2.53,0,0,1-.71,1,3.79,3.79,0,0,1-1.29.73,4.6,4.6,0,0,1-1.56.28,4,4,0,0,1-1.44-.25,4.28,4.28,0,0,1-1.24-.72,4.49,4.49,0,0,1-1-1.15l-2.52-4.31,1.85-.65,2.52,4.3a2.6,2.6,0,0,0,.5.65,2.33,2.33,0,0,0,.61.41,2,2,0,0,0,.68.15A2.08,2.08,0,0,0,442.47,413.63Zm7.41-1-1.85.66L443.77,406l1.86-.66Zm3.59-1.27-4.26-7.28,2.93-1a6.33,6.33,0,0,1,1.48-.36,3.67,3.67,0,0,1,1.17.06,2.31,2.31,0,0,1,.89.43,2.82,2.82,0,0,1,.65.76,1.64,1.64,0,0,1,.2.5,1.25,1.25,0,0,1,0,.51,1.38,1.38,0,0,1-.21.51,2.29,2.29,0,0,1-.45.5,2.82,2.82,0,0,1,1.49.16,2,2,0,0,1,1,.87,2.27,2.27,0,0,1,.31.93,1.79,1.79,0,0,1-.17.91,2.4,2.4,0,0,1-.66.79,4.21,4.21,0,0,1-1.18.62Zm0-3.74,1.06,1.81,1.29-.45a1.63,1.63,0,0,0,.55-.3.85.85,0,0,0,.24-.35.77.77,0,0,0,0-.37,2.75,2.75,0,0,0-.15-.36,1.56,1.56,0,0,0-.27-.34.91.91,0,0,0-.36-.2,1.34,1.34,0,0,0-.46,0,2.51,2.51,0,0,0-.62.15Zm-.66-1.13,1-.34a3.22,3.22,0,0,0,.52-.23,1.1,1.1,0,0,0,.34-.29.59.59,0,0,0,.1-.37,1.08,1.08,0,0,0-.17-.47,1.51,1.51,0,0,0-.32-.4,1,1,0,0,0-.38-.21,1.17,1.17,0,0,0-.46,0,2.94,2.94,0,0,0-.57.14l-1.08.38Zm5.15-5.76,4.37,7.48-1.69.6-4.37-7.48Zm5.18.84a3.89,3.89,0,0,1,1.28-.23,3.56,3.56,0,0,1,1.22.21,3.48,3.48,0,0,1,1.08.63,4,4,0,0,1,.86,1,3.41,3.41,0,0,1,.44,1.19,2.2,2.2,0,0,1-.1,1.06,2,2,0,0,1-.59.85,3.15,3.15,0,0,1-1.07.6,3.92,3.92,0,0,1-1.29.24,4.29,4.29,0,0,1-1.23-.21,3.71,3.71,0,0,1-1.08-.64,4,4,0,0,1-.87-1,3.15,3.15,0,0,1-.43-1.18,2,2,0,0,1,.1-1.05,2.1,2.1,0,0,1,.61-.85A3.34,3.34,0,0,1,463.18,401.56Zm2.45,4.19a.82.82,0,0,0,.64-.67,2.13,2.13,0,0,0-.39-1.25,2.83,2.83,0,0,0-.95-1.05,1.27,1.27,0,0,0-1.08-.07.86.86,0,0,0-.66.69,2.23,2.23,0,0,0,.4,1.24,2.75,2.75,0,0,0,1,1.05A1.29,1.29,0,0,0,465.63,405.75Zm3.88-6.43a3.89,3.89,0,0,1,1.28-.23,3.56,3.56,0,0,1,1.22.21,3.72,3.72,0,0,1,1.08.63,3.93,3.93,0,0,1,.85,1,3.25,3.25,0,0,1,.45,1.19,2.07,2.07,0,0,1-.69,1.91,3.15,3.15,0,0,1-1.07.6,3.64,3.64,0,0,1-2.52,0,3.9,3.9,0,0,1-1.09-.64,4,4,0,0,1-.86-1,3.43,3.43,0,0,1-.44-1.18,2.15,2.15,0,0,1,.11-1.05,2.07,2.07,0,0,1,.6-.85A3.31,3.31,0,0,1,469.51,399.32Zm2.45,4.19a.83.83,0,0,0,.64-.68,2.15,2.15,0,0,0-.4-1.24,2.74,2.74,0,0,0-.94-1,1.27,1.27,0,0,0-1.08-.07.86.86,0,0,0-.66.69,2.12,2.12,0,0,0,.39,1.24,2.83,2.83,0,0,0,.95,1.05A1.31,1.31,0,0,0,472,403.51Zm4.43-.28-3-5.18,1.05-.37a.64.64,0,0,1,.3,0,.52.52,0,0,1,.27.15l.25.24a3.73,3.73,0,0,1,.16-.35,1.21,1.21,0,0,1,.21-.31,1.3,1.3,0,0,1,.31-.26,1.64,1.64,0,0,1,.42-.21,1.69,1.69,0,0,1,1-.06,2.26,2.26,0,0,1,.89.47,1.33,1.33,0,0,1,.1-.54,1.77,1.77,0,0,1,.28-.43A2.69,2.69,0,0,1,479,396a2.55,2.55,0,0,1,.5-.24,3,3,0,0,1,.94-.17,2.06,2.06,0,0,1,.86.17,2.38,2.38,0,0,1,.75.48,3.52,3.52,0,0,1,.61.78l1.93,3.29-1.69.6L481,397.64a.94.94,0,0,0-1.22-.54.69.69,0,0,0-.45.41.81.81,0,0,0,.12.68l1.93,3.29-1.69.6-1.93-3.29a1.15,1.15,0,0,0-.56-.56.89.89,0,0,0-.66,0,.84.84,0,0,0-.38.25,1.28,1.28,0,0,0-.24.39l2.19,3.74Z" transform="translate(-362.38 -333.09)"/><path class="cls-4" d="M398.77,446.7l2.45-.87.35.59-3.23,1.15-3-5.2.77-.28Zm2.83-4.8a2.49,2.49,0,0,1,.88-.14,2.26,2.26,0,0,1,.82.16,2.4,2.4,0,0,1,.73.47A3.05,3.05,0,0,1,405,444a1.37,1.37,0,0,1,0,.73,1.31,1.31,0,0,1-.37.6,2.26,2.26,0,0,1-.72.41,2.7,2.7,0,0,1-.87.15,2.32,2.32,0,0,1-.83-.17,2.36,2.36,0,0,1-.73-.46,2.88,2.88,0,0,1-.92-1.56,1.65,1.65,0,0,1,0-.74,1.31,1.31,0,0,1,.38-.59A2.12,2.12,0,0,1,401.6,441.9Zm1.92,3.28a.89.89,0,0,0,.68-.67,1.78,1.78,0,0,0-.3-1.13,2.34,2.34,0,0,0-.9-.92,1.35,1.35,0,0,0-1.1,0,1.33,1.33,0,0,0-.47.28.82.82,0,0,0-.21.4,1.05,1.05,0,0,0,0,.52,2.43,2.43,0,0,0,.27.61,2.46,2.46,0,0,0,.41.56,1.78,1.78,0,0,0,.48.36,1.54,1.54,0,0,0,.53.14A1.32,1.32,0,0,0,403.52,445.18Zm3.05-.53L404.42,441l.4-.15a.29.29,0,0,1,.18,0,.29.29,0,0,1,.15.11l.38.56a1.5,1.5,0,0,1,.16-.78,1,1,0,0,1,.58-.47,1.32,1.32,0,0,1,.32-.07,1.06,1.06,0,0,1,.31,0l.19.51a.11.11,0,0,1-.07.14l-.19,0a1.46,1.46,0,0,0-.34.08.84.84,0,0,0-.51.42,1.33,1.33,0,0,0-.07.71l1.36,2.34Zm2.6-5.43a2.33,2.33,0,0,1,.73-.12,2,2,0,0,1,.72.13,2.08,2.08,0,0,1,.64.4,2.31,2.31,0,0,1,.54.65c.06.1.09.17.08.21s0,.08-.1.1l-2.68,1a3.08,3.08,0,0,0,.46.57,2,2,0,0,0,.52.34,1.45,1.45,0,0,0,.54.11,1.62,1.62,0,0,0,.57-.09,1.81,1.81,0,0,0,.42-.22,1.23,1.23,0,0,0,.26-.24,2,2,0,0,0,.16-.2.36.36,0,0,1,.13-.12.2.2,0,0,1,.17,0l.34.16a1.12,1.12,0,0,1-.17.37,1.67,1.67,0,0,1-.29.31,2,2,0,0,1-.37.25,3.11,3.11,0,0,1-.41.2,2.75,2.75,0,0,1-.85.14,2.4,2.4,0,0,1-.83-.16,2.8,2.8,0,0,1-.75-.48,3.2,3.2,0,0,1-.64-.79,2.24,2.24,0,0,1-.29-.76,1.67,1.67,0,0,1,0-.71,1.47,1.47,0,0,1,.37-.6A2.07,2.07,0,0,1,409.17,439.22Zm.3.47a1,1,0,0,0-.65.56,1.2,1.2,0,0,0,.07.88l2.19-.78a1.66,1.66,0,0,0-.31-.38,1.4,1.4,0,0,0-.39-.26,1.12,1.12,0,0,0-.44-.09A1.28,1.28,0,0,0,409.47,439.69Zm4.45,2.36-2.15-3.68.42-.15a.25.25,0,0,1,.27.07l.27.36a1.66,1.66,0,0,1,.26-.59,1.07,1.07,0,0,1,.55-.38,1.17,1.17,0,0,1,.78,0,1.7,1.7,0,0,1,.69.43,1,1,0,0,1,0-.42,1,1,0,0,1,.16-.35,1.5,1.5,0,0,1,.29-.27,2,2,0,0,1,.36-.18,1.71,1.71,0,0,1,.62-.1,1.47,1.47,0,0,1,.58.12,1.66,1.66,0,0,1,.52.34,2.54,2.54,0,0,1,.44.56l1.37,2.34-.71.25L417.29,438a1.31,1.31,0,0,0-.59-.58.92.92,0,0,0-.73,0,1.11,1.11,0,0,0-.3.17.62.62,0,0,0-.17.26.67.67,0,0,0,0,.35,1.24,1.24,0,0,0,.15.4L417,441l-.7.25-1.37-2.34a1.49,1.49,0,0,0-.58-.59.89.89,0,0,0-.7,0,.85.85,0,0,0-.41.31,1.08,1.08,0,0,0-.2.49l1.6,2.74Zm6.68-6.8,2.15,3.67-.7.25-2.15-3.67Zm-.51-1.21a.6.6,0,0,1,.06.19.57.57,0,0,1,0,.18.39.39,0,0,1-.1.16.59.59,0,0,1-.17.1.42.42,0,0,1-.22,0,.6.6,0,0,1-.22,0,.69.69,0,0,1-.19-.1.75.75,0,0,1-.14-.17.49.49,0,0,1-.07-.19.58.58,0,0,1,0-.19.56.56,0,0,1,.1-.15.42.42,0,0,1,.18-.11l.21,0a.7.7,0,0,1,.42.15A.61.61,0,0,1,420.09,434Zm4.63,5.69-2.87-4.92.42-.15a.22.22,0,0,1,.26.06l.32.42a1.6,1.6,0,0,1,.32-.67,1.41,1.41,0,0,1,.66-.45,1.67,1.67,0,0,1,.7-.09,1.63,1.63,0,0,1,.69.19,2.53,2.53,0,0,1,.65.48,3.77,3.77,0,0,1,.58.77,3,3,0,0,1,.32.8,1.6,1.6,0,0,1,0,.72,1.16,1.16,0,0,1-.31.6,1.46,1.46,0,0,1-.64.4,1.81,1.81,0,0,1-.7.12,2.14,2.14,0,0,1-.65-.16l.95,1.63Zm-.82-5.1a1.06,1.06,0,0,0-.52.36,1.45,1.45,0,0,0-.24.58l1,1.78a1.64,1.64,0,0,0,.62.18,1.43,1.43,0,0,0,.58-.08.9.9,0,0,0,.65-.67,1.74,1.74,0,0,0-.31-1.15,3.33,3.33,0,0,0-.44-.6,1.73,1.73,0,0,0-.44-.35,1.14,1.14,0,0,0-.46-.13A1.34,1.34,0,0,0,423.9,434.63Zm5-1.58a.13.13,0,0,1-.1.13.39.39,0,0,1-.16,0l-.23,0h-.31a1.18,1.18,0,0,0-.39.08.9.9,0,0,0-.29.16.57.57,0,0,0-.18.2.43.43,0,0,0-.06.22.68.68,0,0,0,.07.23.5.5,0,0,0,.23.2,1.14,1.14,0,0,0,.33.08h.41l.44,0h.46a2,2,0,0,1,.44.06,1.18,1.18,0,0,1,.39.19,1,1,0,0,1,.32.34,1.28,1.28,0,0,1,.17.51.87.87,0,0,1-.07.48,1.15,1.15,0,0,1-.33.41,1.88,1.88,0,0,1-.6.33,2.73,2.73,0,0,1-.83.14,2.35,2.35,0,0,1-.77-.12l0-.3a.29.29,0,0,1,0-.1.26.26,0,0,1,.1-.07.3.3,0,0,1,.19,0l.25,0a1.83,1.83,0,0,0,.34,0,1.5,1.5,0,0,0,.43-.09,1.2,1.2,0,0,0,.34-.18.73.73,0,0,0,.18-.22.43.43,0,0,0,0-.25.49.49,0,0,0-.08-.25.56.56,0,0,0-.24-.22,1.07,1.07,0,0,0-.33-.08,1.84,1.84,0,0,0-.41,0l-.45,0h-.46a2.13,2.13,0,0,1-.44-.07,1.34,1.34,0,0,1-.4-.19,1.32,1.32,0,0,1-.33-.37,1,1,0,0,1-.14-.44,1,1,0,0,1,.08-.44,1.24,1.24,0,0,1,.31-.4,1.74,1.74,0,0,1,.56-.3,2.11,2.11,0,0,1,.77-.13,2.19,2.19,0,0,1,.73.12Zm1.4-1.23,1.37,2.35a1.29,1.29,0,0,0,.59.57,1,1,0,0,0,.76,0,1.07,1.07,0,0,0,.51-.34,1.43,1.43,0,0,0,.28-.55l-1.58-2.71.7-.25,2.15,3.68-.42.15a.25.25,0,0,1-.27-.07l-.28-.38a1.88,1.88,0,0,1-.34.64,1.47,1.47,0,0,1-.65.42,1.63,1.63,0,0,1-.64.11,1.69,1.69,0,0,1-.59-.13,1.86,1.86,0,0,1-.51-.35,2.29,2.29,0,0,1-.42-.54l-1.37-2.35Zm5.94,2.34-2.15-3.68.42-.15a.24.24,0,0,1,.27.07l.27.36a1.66,1.66,0,0,1,.26-.59,1.1,1.1,0,0,1,.55-.39,1.23,1.23,0,0,1,.78,0,1.7,1.7,0,0,1,.69.43,1.17,1.17,0,0,1,0-.42,1.27,1.27,0,0,1,.17-.35,1,1,0,0,1,.28-.27,2.53,2.53,0,0,1,.37-.18,1.73,1.73,0,0,1,.62-.11,1.94,1.94,0,0,1,.58.12,1.9,1.9,0,0,1,.52.35,2.54,2.54,0,0,1,.44.56l1.36,2.34-.7.25-1.37-2.34a1.31,1.31,0,0,0-.59-.58,1,1,0,0,0-.73,0,1.14,1.14,0,0,0-.3.18.68.68,0,0,0-.18.26.77.77,0,0,0,0,.34,1.08,1.08,0,0,0,.15.41l1.37,2.34-.71.25L437.21,431a1.39,1.39,0,0,0-.59-.59.87.87,0,0,0-.69,0,.83.83,0,0,0-.41.3,1.12,1.12,0,0,0-.2.5l1.6,2.74Zm10.87-3.85a.25.25,0,0,1-.27-.07l-.32-.42a1.81,1.81,0,0,1-.32.67,1.53,1.53,0,0,1-.66.44,1.86,1.86,0,0,1-.7.1,2,2,0,0,1-.69-.19,2.33,2.33,0,0,1-.64-.48,4,4,0,0,1-.59-.77,3.26,3.26,0,0,1-.32-.8,1.64,1.64,0,0,1,0-.73,1.24,1.24,0,0,1,.31-.6,1.57,1.57,0,0,1,.64-.41,1.77,1.77,0,0,1,.7-.1,1.92,1.92,0,0,1,.65.15l-1.19-2,.71-.25,3.12,5.35Zm-1.64,0A1.06,1.06,0,0,0,446,430a1.61,1.61,0,0,0,.24-.58l-1-1.78a1.64,1.64,0,0,0-.63-.18,1.61,1.61,0,0,0-.57.08.91.91,0,0,0-.65.68,1.82,1.82,0,0,0,.31,1.15,3.34,3.34,0,0,0,.43.59,1.77,1.77,0,0,0,.45.35,1.1,1.1,0,0,0,.46.13A1.42,1.42,0,0,0,445.44,430.32Zm2.69-4.89a2.65,2.65,0,0,1,.87-.15,2.27,2.27,0,0,1,.82.17,2.56,2.56,0,0,1,.73.46,2.87,2.87,0,0,1,.59.74,2.66,2.66,0,0,1,.33.83,1.48,1.48,0,0,1,0,.73,1.4,1.4,0,0,1-.38.59,2.28,2.28,0,0,1-.72.42,2.7,2.7,0,0,1-.87.15,2.39,2.39,0,0,1-1.56-.63,3,3,0,0,1-.6-.74,2.72,2.72,0,0,1-.32-.82,1.64,1.64,0,0,1,0-.74,1.31,1.31,0,0,1,.38-.59A1.81,1.81,0,0,1,448.13,425.43Zm1.91,3.28a.9.9,0,0,0,.68-.68,1.75,1.75,0,0,0-.3-1.12,2.28,2.28,0,0,0-.9-.92,1.31,1.31,0,0,0-1.1-.05,1.2,1.2,0,0,0-.47.28.78.78,0,0,0-.21.4,1.06,1.06,0,0,0,0,.52,2.43,2.43,0,0,0,.27.61,2.7,2.7,0,0,0,.41.56,1.73,1.73,0,0,0,.48.35,1.19,1.19,0,0,0,.53.14A1.47,1.47,0,0,0,450,428.71Zm.71-6.15,3.12,5.34-.7.25L450,422.81Zm3.81.59a2.65,2.65,0,0,1,.87-.15,2.56,2.56,0,0,1,.83.17,2.52,2.52,0,0,1,.73.47,3.09,3.09,0,0,1,.59.73,2.62,2.62,0,0,1,.32.83,1.39,1.39,0,0,1-.41,1.33,2.16,2.16,0,0,1-.72.41,2.65,2.65,0,0,1-.87.15,2.37,2.37,0,0,1-.83-.17,2.48,2.48,0,0,1-.73-.46,3.09,3.09,0,0,1-.59-.73,2.4,2.4,0,0,1-.32-.83,1.53,1.53,0,0,1,0-.74,1.4,1.4,0,0,1,.38-.59A2,2,0,0,1,454.56,423.15Zm1.92,3.28a.89.89,0,0,0,.67-.68,1.71,1.71,0,0,0-.3-1.12,2.32,2.32,0,0,0-.89-.92,1.35,1.35,0,0,0-1.1,0,1.07,1.07,0,0,0-.47.28.88.88,0,0,0-.22.4,1.35,1.35,0,0,0,0,.52,2.43,2.43,0,0,0,.27.61,3.12,3.12,0,0,0,.41.56,2,2,0,0,0,.48.36,1.38,1.38,0,0,0,.53.13A1.52,1.52,0,0,0,456.48,426.43Zm3-.53-2.15-3.68.41-.14a.23.23,0,0,1,.18,0,.32.32,0,0,1,.14.11l.38.56a1.45,1.45,0,0,1,.16-.78,1,1,0,0,1,.58-.47,1.39,1.39,0,0,1,.33-.07,1,1,0,0,1,.3,0l.19.51a.09.09,0,0,1-.07.13.41.41,0,0,1-.19,0,1.46,1.46,0,0,0-.34.08.87.87,0,0,0-.5.41,1.26,1.26,0,0,0-.08.72l1.37,2.34Zm5.24-5.56a.13.13,0,0,1-.1.13.28.28,0,0,1-.16,0l-.24,0H464a1.44,1.44,0,0,0-.38.08,1.39,1.39,0,0,0-.3.16.67.67,0,0,0-.18.2.46.46,0,0,0,0,.23.38.38,0,0,0,.07.22.5.5,0,0,0,.22.21,1.14,1.14,0,0,0,.34.07,1.75,1.75,0,0,0,.4,0l.45,0H465a2.13,2.13,0,0,1,.44.07,1.15,1.15,0,0,1,.39.18,1.07,1.07,0,0,1,.31.35,1.32,1.32,0,0,1,.18.5,1,1,0,0,1-.08.48,1.27,1.27,0,0,1-.33.42,2.1,2.1,0,0,1-.6.32,2.2,2.2,0,0,1-.83.14,2.7,2.7,0,0,1-.77-.11l0-.31a.3.3,0,0,1,0-.1.2.2,0,0,1,.1-.07H464l.25,0a1.87,1.87,0,0,0,.34,0,1.28,1.28,0,0,0,.44-.09,1.26,1.26,0,0,0,.33-.17.76.76,0,0,0,.18-.23.43.43,0,0,0,0-.25.69.69,0,0,0-.09-.25.51.51,0,0,0-.23-.21.9.9,0,0,0-.34-.09,1.83,1.83,0,0,0-.41,0l-.45,0h-.46a1.62,1.62,0,0,1-.44-.07,1.23,1.23,0,0,1-.4-.19,1.17,1.17,0,0,1-.32-.37.91.91,0,0,1-.14-.44.84.84,0,0,1,.07-.44,1.24,1.24,0,0,1,.31-.39,1.85,1.85,0,0,1,.56-.3,2.14,2.14,0,0,1,.78-.14,2.24,2.24,0,0,1,.73.12Zm1.56-1.29,2.16,3.68-.71.25-2.15-3.68Zm-.51-1.21a.39.39,0,0,1,.06.2.57.57,0,0,1,0,.18.39.39,0,0,1-.1.16.48.48,0,0,1-.17.1.41.41,0,0,1-.22,0,.52.52,0,0,1-.21,0,.59.59,0,0,1-.19-.11.57.57,0,0,1-.15-.16.35.35,0,0,1-.06-.19.4.4,0,0,1,0-.19.39.39,0,0,1,.1-.16.4.4,0,0,1,.17-.1.39.39,0,0,1,.21,0,.54.54,0,0,1,.22,0,.78.78,0,0,1,.2.11A.75.75,0,0,1,465.81,417.84Zm5.16,4.08a1.22,1.22,0,0,1-.88,0,1.32,1.32,0,0,1-.66-.61l-1.32-2.25-.48.17a.19.19,0,0,1-.13,0,.21.21,0,0,1-.1-.09l-.15-.26.61-.31-.5-1.19a.11.11,0,0,1,0-.11.15.15,0,0,1,.09-.08l.36-.12.74,1.27,1.15-.41.27.47-1.15.4,1.29,2.21a.59.59,0,0,0,.33.3.5.5,0,0,0,.38,0,.39.39,0,0,0,.17-.09l.11-.11.07-.1a.08.08,0,0,1,.05,0,.18.18,0,0,1,.14,0l.39.24a1.14,1.14,0,0,1-.3.4A1.64,1.64,0,0,1,471,421.92Zm6.19-2.26-.32.11a.62.62,0,0,1-.18,0,.26.26,0,0,1-.15-.1l-.28-.31c-.06.13-.11.24-.17.35a1.93,1.93,0,0,1-.22.28,1.34,1.34,0,0,1-.29.23,2.49,2.49,0,0,1-.4.19,2,2,0,0,1-.47.1,1.7,1.7,0,0,1-.46-.06,1.41,1.41,0,0,1-.42-.22,1.36,1.36,0,0,1-.34-.4.87.87,0,0,1-.12-.47.93.93,0,0,1,.21-.5,2.43,2.43,0,0,1,.62-.53,5.88,5.88,0,0,1,1.09-.52l-.17-.29a1.26,1.26,0,0,0-.58-.57.9.9,0,0,0-.72,0,1.24,1.24,0,0,0-.4.22,1.28,1.28,0,0,0-.23.24l-.14.21a.27.27,0,0,1-.15.13.3.3,0,0,1-.28-.05l-.25-.16a1.86,1.86,0,0,1,.46-.69,2.15,2.15,0,0,1,.77-.45,1.7,1.7,0,0,1,.66-.11,1.74,1.74,0,0,1,.6.13,1.77,1.77,0,0,1,.53.34,2.45,2.45,0,0,1,.42.53Zm-2.06.25a1.91,1.91,0,0,0,.32-.15,1.5,1.5,0,0,0,.23-.2,1.38,1.38,0,0,0,.17-.25,1.34,1.34,0,0,0,.12-.3l-.44-.76a5,5,0,0,0-.79.36,2.2,2.2,0,0,0-.47.34.67.67,0,0,0-.19.33.51.51,0,0,0,.07.31.76.76,0,0,0,.2.23.7.7,0,0,0,.24.13.74.74,0,0,0,.26,0Zm3.13-.63-2.15-3.68.42-.15a.25.25,0,0,1,.27.07l.27.36a1.65,1.65,0,0,1,.25-.59,1.11,1.11,0,0,1,.55-.38,1.17,1.17,0,0,1,.78,0,1.7,1.7,0,0,1,.69.43,1.17,1.17,0,0,1,0-.42.88.88,0,0,1,.17-.35,1.2,1.2,0,0,1,.28-.27,2,2,0,0,1,.36-.18,1.75,1.75,0,0,1,.62-.1,1.43,1.43,0,0,1,.58.12,1.56,1.56,0,0,1,.52.34,2.54,2.54,0,0,1,.44.56l1.37,2.34-.71.25-1.37-2.34a1.29,1.29,0,0,0-.58-.58.92.92,0,0,0-.73,0,.87.87,0,0,0-.3.17.68.68,0,0,0-.18.26.67.67,0,0,0,0,.35,1.08,1.08,0,0,0,.16.4l1.36,2.34-.7.25-1.37-2.34a1.43,1.43,0,0,0-.58-.59.87.87,0,0,0-.69,0,.82.82,0,0,0-.42.3,1.5,1.5,0,0,0-.2.5l1.6,2.74Zm5.91-6.61a2.33,2.33,0,0,1,.73-.12,2.18,2.18,0,0,1,.72.13,2.08,2.08,0,0,1,.64.4,2.31,2.31,0,0,1,.54.65.37.37,0,0,1,.08.22s0,.07-.1.09l-2.67.95a2.7,2.7,0,0,0,.45.57,2,2,0,0,0,.52.34,1.69,1.69,0,0,0,.54.12,1.9,1.9,0,0,0,.57-.1,1.62,1.62,0,0,0,.42-.22,1.23,1.23,0,0,0,.26-.24l.16-.2a.36.36,0,0,1,.13-.12.2.2,0,0,1,.17,0l.34.16a1.12,1.12,0,0,1-.17.37,1.41,1.41,0,0,1-.29.31,1.78,1.78,0,0,1-.36.25,2.67,2.67,0,0,1-.42.2,2.75,2.75,0,0,1-.85.14,2.3,2.3,0,0,1-.82-.16A2.7,2.7,0,0,1,484,416a3.2,3.2,0,0,1-.64-.79,2.47,2.47,0,0,1-.29-.76,1.52,1.52,0,0,1,0-.71,1.34,1.34,0,0,1,.36-.6A2.07,2.07,0,0,1,484.14,412.67Zm.3.47a1,1,0,0,0-.65.56,1.2,1.2,0,0,0,.07.88l2.19-.77a1.72,1.72,0,0,0-.31-.39,1.18,1.18,0,0,0-.39-.25,1,1,0,0,0-.44-.1A1.31,1.31,0,0,0,484.44,413.14Zm5.71,2a1.22,1.22,0,0,1-.88,0,1.32,1.32,0,0,1-.66-.61l-1.32-2.25-.48.17a.2.2,0,0,1-.13,0,.23.23,0,0,1-.11-.09l-.15-.26.62-.31-.51-1.19a.14.14,0,0,1,0-.11.15.15,0,0,1,.08-.08l.36-.12.74,1.26,1.15-.4.28.47L488,412l1.29,2.21a.65.65,0,0,0,.32.3.63.63,0,0,0,.56-.09l.11-.11s.05-.07.06-.1a.13.13,0,0,1,.06-.05s.08,0,.14,0l.38.24a1.11,1.11,0,0,1-.29.4A1.64,1.64,0,0,1,490.15,415.13Zm1.24-1.05a.29.29,0,0,1-.06-.17.42.42,0,0,1,0-.16.49.49,0,0,1,.1-.15.69.69,0,0,1,.17-.1.66.66,0,0,1,.24,0,.43.43,0,0,1,.22.06.59.59,0,0,1,.19.13,1,1,0,0,1,.15.19,1.22,1.22,0,0,1,.14.35,1.39,1.39,0,0,1,.06.4,2,2,0,0,1,0,.42,2.3,2.3,0,0,1-.14.42l-.18-.07a.15.15,0,0,1-.11-.08.16.16,0,0,1,0-.12.39.39,0,0,0,0-.14,1.18,1.18,0,0,0,0-.2.88.88,0,0,0,0-.23.7.7,0,0,0,0-.25h-.05a.52.52,0,0,1-.21,0l-.2,0-.18-.11A.55.55,0,0,1,491.39,414.08Zm3.68-.76-2.16-3.68.42-.15a.23.23,0,0,1,.27.07l.29.38a1.86,1.86,0,0,1,.33-.64,1.58,1.58,0,0,1,.66-.43,1.82,1.82,0,0,1,.64-.1,1.63,1.63,0,0,1,.58.13,1.76,1.76,0,0,1,.52.35,2.29,2.29,0,0,1,.42.54l1.37,2.34-.71.25L496.33,410a1.29,1.29,0,0,0-.59-.57,1,1,0,0,0-.77,0,1.19,1.19,0,0,0-.5.35,1.43,1.43,0,0,0-.28.55l1.58,2.71Zm3.81-5.86a2,2,0,0,1,.73-.13,2,2,0,0,1,.71.14,1.91,1.91,0,0,1,.65.39,2.47,2.47,0,0,1,.53.65.39.39,0,0,1,.08.22s0,.07-.1.1l-2.67.94a2.44,2.44,0,0,0,.46.57,1.63,1.63,0,0,0,.51.34,1.33,1.33,0,0,0,.55.12,1.62,1.62,0,0,0,.56-.1,1.33,1.33,0,0,0,.43-.22,2.05,2.05,0,0,0,.26-.24l.16-.2a.24.24,0,0,1,.12-.11.23.23,0,0,1,.18,0l.33.17a1,1,0,0,1-.16.36,1.7,1.7,0,0,1-.29.31,2.45,2.45,0,0,1-.37.26,3.89,3.89,0,0,1-.42.19,2.25,2.25,0,0,1-.84.14,2.15,2.15,0,0,1-.83-.16,2.66,2.66,0,0,1-.76-.47,3.19,3.19,0,0,1-.63-.8,2.41,2.41,0,0,1-.3-.76,1.53,1.53,0,0,1,0-.71,1.26,1.26,0,0,1,.36-.59A1.76,1.76,0,0,1,498.88,407.46Zm.29.47a1,1,0,0,0-.65.55,1.21,1.21,0,0,0,.08.88l2.18-.77a1.72,1.72,0,0,0-.31-.39,1.32,1.32,0,0,0-.38-.25,1.34,1.34,0,0,0-.45-.1A1.33,1.33,0,0,0,499.17,407.93Zm5.43-1.64,0,.08s0,0-.08.06h-.15l-.24,0h-.32a1.29,1.29,0,0,0-.4.08,1.16,1.16,0,0,0-.46.28.87.87,0,0,0-.22.41,1.17,1.17,0,0,0,0,.52,2.78,2.78,0,0,0,.26.61,2.85,2.85,0,0,0,.43.56,2,2,0,0,0,.49.36,1.61,1.61,0,0,0,.52.14,1.46,1.46,0,0,0,.54-.09,1.34,1.34,0,0,0,.4-.2,1.37,1.37,0,0,0,.2-.23c.05-.07.08-.13.11-.18a.15.15,0,0,1,.11-.11.2.2,0,0,1,.17,0l.33.17a1.18,1.18,0,0,1-.4.66,2.5,2.5,0,0,1-.75.43,2,2,0,0,1-.77.12,2.38,2.38,0,0,1-.78-.17,2.82,2.82,0,0,1-.72-.46,2.88,2.88,0,0,1-.6-.76,2.53,2.53,0,0,1-.32-.8,1.5,1.5,0,0,1,0-.73,1.34,1.34,0,0,1,.36-.6,1.91,1.91,0,0,1,.73-.43,2.4,2.4,0,0,1,.82-.14,2.69,2.69,0,0,1,.78.15Zm4.76-1.74a.13.13,0,0,1-.1.13h-.15l-.24,0h-.31a1.39,1.39,0,0,0-.38.09,1.05,1.05,0,0,0-.3.15.67.67,0,0,0-.18.2.39.39,0,0,0-.05.23.46.46,0,0,0,.06.22.51.51,0,0,0,.23.21,1.14,1.14,0,0,0,.33.08,2.8,2.8,0,0,0,.41,0l.44,0h.47a1.54,1.54,0,0,1,.43.06,1.14,1.14,0,0,1,.4.19,1,1,0,0,1,.31.34,1.14,1.14,0,0,1,.17.51.9.9,0,0,1-.07.48,1.24,1.24,0,0,1-.33.41,1.88,1.88,0,0,1-.6.32,2.47,2.47,0,0,1-.83.15,3.1,3.1,0,0,1-.77-.12l0-.31a.3.3,0,0,1,0-.1.21.21,0,0,1,.1-.06.27.27,0,0,1,.18,0l.25,0a1.83,1.83,0,0,0,.34,0,1.7,1.7,0,0,0,.44-.1,1,1,0,0,0,.33-.17.76.76,0,0,0,.18-.23.51.51,0,0,0,0-.24.58.58,0,0,0-.09-.25.51.51,0,0,0-.24-.22.8.8,0,0,0-.33-.09h-.41l-.45,0h-.46a2.13,2.13,0,0,1-.44-.07,1.25,1.25,0,0,1-.4-.2,1.2,1.2,0,0,1-.33-.37,1.14,1.14,0,0,1-.14-.43A.93.93,0,0,1,507,405a1.17,1.17,0,0,1,.31-.4,1.85,1.85,0,0,1,.56-.3,2.38,2.38,0,0,1,.78-.14,2.18,2.18,0,0,1,.72.12Zm5.89,1.62-.32.11a.62.62,0,0,1-.18,0,.3.3,0,0,1-.15-.09l-.28-.32-.17.35a2.09,2.09,0,0,1-.22.28,1.22,1.22,0,0,1-.3.24,2.38,2.38,0,0,1-.39.18,2,2,0,0,1-.47.1,1.7,1.7,0,0,1-.46-.06,1.22,1.22,0,0,1-.76-.62.76.76,0,0,1-.12-.46.93.93,0,0,1,.21-.51,2.65,2.65,0,0,1,.62-.53,5.88,5.88,0,0,1,1.09-.52l-.17-.29a1.37,1.37,0,0,0-.58-.57.9.9,0,0,0-.72,0,1.24,1.24,0,0,0-.4.21,1.28,1.28,0,0,0-.23.24l-.14.22a.29.29,0,0,1-.15.12.26.26,0,0,1-.15,0,.38.38,0,0,1-.13-.06l-.25-.16a1.94,1.94,0,0,1,.46-.69,2.15,2.15,0,0,1,.77-.45,1.91,1.91,0,0,1,.66-.11,1.74,1.74,0,0,1,.6.13,1.77,1.77,0,0,1,.53.34,2.29,2.29,0,0,1,.42.54Zm-2.07.25a1.26,1.26,0,0,0,.33-.15,1.5,1.5,0,0,0,.23-.2,1.38,1.38,0,0,0,.17-.25,1.34,1.34,0,0,0,.12-.3l-.44-.76a6.13,6.13,0,0,0-.79.36,2.2,2.2,0,0,0-.47.35.64.64,0,0,0-.19.32.49.49,0,0,0,.07.31.57.57,0,0,0,.2.23.7.7,0,0,0,.24.13.74.74,0,0,0,.26,0Zm.79-6.25,3.13,5.34-.7.25-3.13-5.34Zm3.78.6a2.28,2.28,0,0,1,.73-.12,2,2,0,0,1,1.36.53,2.5,2.5,0,0,1,.54.65.46.46,0,0,1,.08.21s0,.08-.11.1l-2.67.95a2.72,2.72,0,0,0,.46.57,2,2,0,0,0,.51.34,1.75,1.75,0,0,0,.55.12,1.9,1.9,0,0,0,.57-.1,2,2,0,0,0,.42-.22,1.54,1.54,0,0,0,.26-.24,2,2,0,0,0,.16-.2.29.29,0,0,1,.13-.12.21.21,0,0,1,.17,0l.34.16a1.12,1.12,0,0,1-.17.37,2.09,2.09,0,0,1-.29.31,1.6,1.6,0,0,1-.37.25,2.37,2.37,0,0,1-1.26.34,2.4,2.4,0,0,1-.83-.16,2.65,2.65,0,0,1-.75-.48,3.2,3.2,0,0,1-.64-.79,2.24,2.24,0,0,1-.29-.76,1.53,1.53,0,0,1,0-.71,1.47,1.47,0,0,1,.37-.6A2,2,0,0,1,517.75,400.77Zm.29.47a1,1,0,0,0-.64.56,1.2,1.2,0,0,0,.07.88l2.18-.78a1.63,1.63,0,0,0-.3-.38,1.18,1.18,0,0,0-.39-.25,1,1,0,0,0-.44-.1A1.33,1.33,0,0,0,518,401.24Zm6,1.82-2.15-3.68.42-.15a.25.25,0,0,1,.27.07l.29.38a1.86,1.86,0,0,1,.33-.64,1.58,1.58,0,0,1,.66-.43,1.82,1.82,0,0,1,.64-.1,1.45,1.45,0,0,1,.58.14,1.73,1.73,0,0,1,.52.34,2.29,2.29,0,0,1,.42.54l1.37,2.34-.71.25-1.37-2.34a1.29,1.29,0,0,0-.59-.57,1,1,0,0,0-.77,0,1.13,1.13,0,0,0-.5.35,1.43,1.43,0,0,0-.28.55l1.58,2.71Zm7.36-2.61-.31.11a.33.33,0,0,1-.19,0,.2.2,0,0,1-.15-.09l-.28-.31c-.06.12-.11.24-.17.34a1.58,1.58,0,0,1-.22.29,1.73,1.73,0,0,1-.29.23,1.85,1.85,0,0,1-.4.18,1.52,1.52,0,0,1-.47.1,1.4,1.4,0,0,1-.88-.27,1.4,1.4,0,0,1-.34-.41.75.75,0,0,1-.11-.46.8.8,0,0,1,.21-.51,2.35,2.35,0,0,1,.61-.52,5.84,5.84,0,0,1,1.09-.53l-.17-.28a1.34,1.34,0,0,0-.58-.58.94.94,0,0,0-.72,0,1.07,1.07,0,0,0-.4.22,1.7,1.7,0,0,0-.23.24l-.14.21a.29.29,0,0,1-.15.12.36.36,0,0,1-.14,0l-.14-.06-.25-.16a1.9,1.9,0,0,1,.46-.7,2.29,2.29,0,0,1,.77-.44,1.73,1.73,0,0,1,.66-.11,1.53,1.53,0,0,1,.6.12,1.81,1.81,0,0,1,.53.35,2.23,2.23,0,0,1,.42.53Zm-2.06.26a1.91,1.91,0,0,0,.32-.16,1.5,1.5,0,0,0,.23-.2,1.1,1.1,0,0,0,.17-.25,2.55,2.55,0,0,0,.13-.29l-.45-.77a6.7,6.7,0,0,0-.79.37,2.49,2.49,0,0,0-.47.34.63.63,0,0,0-.19.33.52.52,0,0,0,.07.31.9.9,0,0,0,.2.23.55.55,0,0,0,.24.12.74.74,0,0,0,.26,0Zm4.38-1a1.27,1.27,0,0,1-.88,0,1.37,1.37,0,0,1-.66-.61l-1.32-2.25-.48.17a.28.28,0,0,1-.13,0,.15.15,0,0,1-.1-.09l-.15-.26.61-.31-.5-1.19a.11.11,0,0,1,0-.11.11.11,0,0,1,.09-.07l.35-.13.75,1.27,1.14-.41.28.47-1.15.41,1.29,2.2a.61.61,0,0,0,.32.3.58.58,0,0,0,.39,0,.55.55,0,0,0,.17-.1l.11-.11.06-.09.06-.06a.2.2,0,0,1,.14,0l.38.23a1.11,1.11,0,0,1-.29.41A1.61,1.61,0,0,1,533.71,399.7Zm.17-4.57,1.37,2.35a1.32,1.32,0,0,0,.58.57,1,1,0,0,0,.77,0,1.07,1.07,0,0,0,.51-.34,1.36,1.36,0,0,0,.28-.55l-1.58-2.71.7-.25,2.15,3.68-.42.15A.25.25,0,0,1,538,398l-.28-.38a2.07,2.07,0,0,1-.34.64,1.47,1.47,0,0,1-.65.42,1.63,1.63,0,0,1-.64.11,1.69,1.69,0,0,1-.59-.13,1.86,1.86,0,0,1-.51-.35,2.29,2.29,0,0,1-.42-.54l-1.37-2.35Zm5.94,2.34-2.15-3.68.42-.15a.25.25,0,0,1,.27.07l.27.36a1.66,1.66,0,0,1,.26-.59,1.1,1.1,0,0,1,.55-.39,1.2,1.2,0,0,1,.77,0,1.8,1.8,0,0,1,.7.43,1,1,0,0,1,0-.42,1,1,0,0,1,.17-.35,1.2,1.2,0,0,1,.28-.27,2.12,2.12,0,0,1,.37-.18,1.73,1.73,0,0,1,.62-.11,1.81,1.81,0,0,1,.57.12,2,2,0,0,1,.53.35,2.51,2.51,0,0,1,.43.56l1.37,2.34-.7.25-1.37-2.34a1.36,1.36,0,0,0-.59-.58,1,1,0,0,0-.73,0,.89.89,0,0,0-.3.18.68.68,0,0,0-.18.26.94.94,0,0,0,0,.34,1.12,1.12,0,0,0,.16.41l1.37,2.34-.71.25-1.37-2.34a1.32,1.32,0,0,0-.58-.59.87.87,0,0,0-.69,0,.79.79,0,0,0-.41.3,1.26,1.26,0,0,0-.21.5l1.61,2.74Zm10.87-3.85a.25.25,0,0,1-.27-.07l-.32-.42a1.81,1.81,0,0,1-.32.67,1.6,1.6,0,0,1-.66.44,1.86,1.86,0,0,1-.7.1,2,2,0,0,1-.69-.19,2.53,2.53,0,0,1-.65-.48,4,4,0,0,1-.58-.77,2.79,2.79,0,0,1-.32-.8,1.81,1.81,0,0,1,0-.73,1.25,1.25,0,0,1,.32-.6,1.46,1.46,0,0,1,.64-.4,1.6,1.6,0,0,1,.7-.11,2,2,0,0,1,.65.15l-1.19-2,.7-.25,3.13,5.35Zm-1.64,0a1,1,0,0,0,.51-.36,1.32,1.32,0,0,0,.24-.58l-1-1.78a1.46,1.46,0,0,0-1.19-.1.91.91,0,0,0-.65.68,1.76,1.76,0,0,0,.31,1.15,2.91,2.91,0,0,0,.43.59,1.73,1.73,0,0,0,.44.35,1.19,1.19,0,0,0,.47.13A1.42,1.42,0,0,0,549.05,393.63Zm1.88-4.53,2.15,3.67-.71.25-2.15-3.67Zm-.52-1.22a.39.39,0,0,1,.06.2.29.29,0,0,1,0,.18.39.39,0,0,1-.1.16.4.4,0,0,1-.17.1.41.41,0,0,1-.22,0,.52.52,0,0,1-.21,0,.85.85,0,0,1-.19-.1.8.8,0,0,1-.15-.17.7.7,0,0,1-.06-.19.4.4,0,0,1,0-.19.31.31,0,0,1,.1-.15.34.34,0,0,1,.17-.11.53.53,0,0,1,.22,0,.78.78,0,0,1,.21,0,.64.64,0,0,1,.2.11A.75.75,0,0,1,550.41,387.88Zm4.41.57a.13.13,0,0,1-.1.13.35.35,0,0,1-.15,0l-.24,0H554a1.08,1.08,0,0,0-.38.08.86.86,0,0,0-.3.16.57.57,0,0,0-.18.2.43.43,0,0,0-.06.22.68.68,0,0,0,.07.23.5.5,0,0,0,.23.2,1.14,1.14,0,0,0,.33.08h.41l.44,0c.16,0,.31,0,.47,0a1.54,1.54,0,0,1,.43.06,1.33,1.33,0,0,1,.4.19,1.2,1.2,0,0,1,.48.85.87.87,0,0,1-.07.48,1.15,1.15,0,0,1-.33.41,1.7,1.7,0,0,1-.6.32,2.47,2.47,0,0,1-.83.15,2.39,2.39,0,0,1-.77-.12l0-.3a.23.23,0,0,1,0-.1s0-.05.1-.07a.27.27,0,0,1,.18,0l.25,0a1.83,1.83,0,0,0,.34,0,2.15,2.15,0,0,0,.44-.09,1.29,1.29,0,0,0,.33-.18.73.73,0,0,0,.18-.22.55.55,0,0,0,0-.25.63.63,0,0,0-.09-.25.56.56,0,0,0-.24-.22,1.06,1.06,0,0,0-.33-.09,2.8,2.8,0,0,0-.41,0l-.45,0h-.46a2.13,2.13,0,0,1-.44-.07,1.34,1.34,0,0,1-.4-.19,1.24,1.24,0,0,1-.33-.38,1.14,1.14,0,0,1-.14-.43.93.93,0,0,1,.08-.44,1.27,1.27,0,0,1,.31-.4,1.74,1.74,0,0,1,.56-.3,2.11,2.11,0,0,1,.77-.13,2.19,2.19,0,0,1,.73.12Zm3.44-1.22a.13.13,0,0,1-.1.13.27.27,0,0,1-.16,0l-.23,0a1.71,1.71,0,0,0-.32,0,1.52,1.52,0,0,0-.38.08,1,1,0,0,0-.29.16.67.67,0,0,0-.18.2.46.46,0,0,0-.06.22.51.51,0,0,0,.07.23.5.5,0,0,0,.23.2.84.84,0,0,0,.33.08,2.7,2.7,0,0,0,.41,0l.44,0h.46a2.92,2.92,0,0,1,.44.06,1.18,1.18,0,0,1,.39.19,1,1,0,0,1,.31.35,1.21,1.21,0,0,1,.18.5,1,1,0,0,1-.07.48,1.27,1.27,0,0,1-.33.42,2.41,2.41,0,0,1-.6.32,2.45,2.45,0,0,1-.83.14,2.35,2.35,0,0,1-.77-.12l0-.3a.17.17,0,0,1,0-.1.26.26,0,0,1,.1-.07h.18l.26.05a1.84,1.84,0,0,0,.34,0,1.23,1.23,0,0,0,.43-.09,1.2,1.2,0,0,0,.34-.18.57.57,0,0,0,.17-.22.43.43,0,0,0,0-.25.61.61,0,0,0-.08-.25.56.56,0,0,0-.24-.22,1.14,1.14,0,0,0-.33-.08,1.86,1.86,0,0,0-.41,0l-.45,0h-.46a2.22,2.22,0,0,1-.45-.07,1.33,1.33,0,0,1-.4-.19,1.3,1.3,0,0,1-.32-.37,1,1,0,0,1-.14-.44.84.84,0,0,1,.08-.44,1.11,1.11,0,0,1,.31-.39,1.8,1.8,0,0,1,.55-.31,2.45,2.45,0,0,1,.78-.13,2.19,2.19,0,0,1,.73.12Zm2.34-1.63a1.84,1.84,0,0,1,.73-.12,2,2,0,0,1,.72.13,2.16,2.16,0,0,1,.64.39,2.67,2.67,0,0,1,.54.65.53.53,0,0,1,.08.22s0,.08-.11.1l-2.67.94a2.29,2.29,0,0,0,.46.57,1.66,1.66,0,0,0,.52.34,1.25,1.25,0,0,0,.54.12,1.81,1.81,0,0,0,1-.31,3.33,3.33,0,0,0,.26-.24,2,2,0,0,0,.16-.21.22.22,0,0,1,.13-.11.2.2,0,0,1,.17,0l.34.17a1,1,0,0,1-.17.36,1.75,1.75,0,0,1-.29.32,2.68,2.68,0,0,1-.79.44,2.37,2.37,0,0,1-2.42-.49,3.4,3.4,0,0,1-.64-.79,2.28,2.28,0,0,1-.29-.77,1.53,1.53,0,0,1,0-.71,1.37,1.37,0,0,1,.37-.59A1.79,1.79,0,0,1,560.6,385.6Zm.29.47a1,1,0,0,0-.64.56,1.17,1.17,0,0,0,.07.87l2.19-.77a1.72,1.72,0,0,0-.31-.39,1.36,1.36,0,0,0-.39-.25,1.34,1.34,0,0,0-.44-.1A1.38,1.38,0,0,0,560.89,386.07Zm4.46,2.36-2.15-3.68.42-.15a.24.24,0,0,1,.27.07l.29.38a1.86,1.86,0,0,1,.33-.64,1.52,1.52,0,0,1,.66-.43,1.8,1.8,0,0,1,.63-.1,1.64,1.64,0,0,1,.59.13,1.72,1.72,0,0,1,.51.35,2.29,2.29,0,0,1,.42.54l1.37,2.34-.7.25-1.37-2.34a1.29,1.29,0,0,0-.59-.57,1,1,0,0,0-.77,0,1.08,1.08,0,0,0-.5.35,1.6,1.6,0,0,0-.29.55l1.59,2.71Zm5.66-1.94a1.27,1.27,0,0,1-.88,0,1.37,1.37,0,0,1-.66-.61l-1.32-2.25-.48.17a.19.19,0,0,1-.13,0,.15.15,0,0,1-.1-.09l-.15-.26.61-.31-.5-1.19a.11.11,0,0,1,0-.11s0-.05.09-.07l.35-.13.75,1.27,1.14-.41.28.47-1.15.41,1.29,2.2a.68.68,0,0,0,.32.31.65.65,0,0,0,.39,0,.55.55,0,0,0,.17-.1.57.57,0,0,0,.11-.11.35.35,0,0,0,.06-.09.17.17,0,0,1,.06-.06.2.2,0,0,1,.14,0l.38.23a1.14,1.14,0,0,1-.29.41A1.42,1.42,0,0,1,571,386.49Zm.34-4.63,2.15,3.68-.71.25-2.15-3.68Zm-.52-1.21a.39.39,0,0,1,.06.2.37.37,0,0,1,0,.18.4.4,0,0,1-.1.15.42.42,0,0,1-.18.11.51.51,0,0,1-.21,0,.85.85,0,0,1-.22,0,.72.72,0,0,1-.19-.11.43.43,0,0,1-.14-.16.49.49,0,0,1-.07-.19.4.4,0,0,1,0-.19.54.54,0,0,1,.1-.16.59.59,0,0,1,.17-.1.41.41,0,0,1,.22,0,.57.57,0,0,1,.22,0,1,1,0,0,1,.2.11A.52.52,0,0,1,570.83,380.65Zm2.37.56,1.37,2.34a1.34,1.34,0,0,0,.59.57,1,1,0,0,0,.77,0,1.2,1.2,0,0,0,.5-.34,1.49,1.49,0,0,0,.29-.56l-1.59-2.71.71-.25L578,384l-.42.15a.25.25,0,0,1-.27-.07l-.29-.37a1.81,1.81,0,0,1-.33.63,1.46,1.46,0,0,1-.65.43,1.85,1.85,0,0,1-.64.1,1.45,1.45,0,0,1-.59-.13,1.72,1.72,0,0,1-.51-.35,2.29,2.29,0,0,1-.42-.54l-1.37-2.34Zm5.95,2.33L577,379.86l.42-.15a.25.25,0,0,1,.27.07l.29.38a1.73,1.73,0,0,1,.33-.63,1.4,1.4,0,0,1,.65-.43,1.84,1.84,0,0,1,.64-.11,1.5,1.5,0,0,1,.59.14,1.86,1.86,0,0,1,.51.35,2.29,2.29,0,0,1,.42.54l1.37,2.34-.71.25-1.37-2.34a1.35,1.35,0,0,0-.58-.58,1,1,0,0,0-.77,0,1.15,1.15,0,0,0-.51.34,1.68,1.68,0,0,0-.28.55l1.58,2.71Zm5.65-1.93a1.19,1.19,0,0,1-.87,0,1.25,1.25,0,0,1-.66-.61L582,378.76l-.48.17a.2.2,0,0,1-.13,0,.23.23,0,0,1-.11-.09l-.15-.26.61-.31-.5-1.2a.17.17,0,0,1,0-.1.24.24,0,0,1,.09-.08l.36-.12.74,1.26,1.15-.4.27.47-1.15.4,1.3,2.21a.66.66,0,0,0,.32.3.5.5,0,0,0,.38,0,.74.74,0,0,0,.18-.09l.1-.11.07-.1s0-.05.06-.05a.13.13,0,0,1,.13,0l.39.24a1,1,0,0,1-.3.4A1.41,1.41,0,0,1,584.8,381.61ZM404.29,458l-2.15-3.67.42-.15a.24.24,0,0,1,.27.07l.29.38a1.86,1.86,0,0,1,.33-.64,1.48,1.48,0,0,1,.65-.43,1.62,1.62,0,0,1,.64-.1,1.49,1.49,0,0,1,.59.13,1.86,1.86,0,0,1,.51.35,2.29,2.29,0,0,1,.42.54l1.37,2.34-.7.25-1.37-2.34a1.34,1.34,0,0,0-.59-.57,1,1,0,0,0-.77,0,1.09,1.09,0,0,0-.51.35,1.59,1.59,0,0,0-.28.55l1.58,2.7Zm3.81-5.85a2,2,0,0,1,.73-.13,2.1,2.1,0,0,1,1.36.53,2.71,2.71,0,0,1,.54.65.49.49,0,0,1,.08.22s0,.07-.11.1l-2.67.94a2.72,2.72,0,0,0,.46.57,2,2,0,0,0,.51.34,1.51,1.51,0,0,0,.55.12,1.71,1.71,0,0,0,1-.32,1.54,1.54,0,0,0,.26-.24,1.27,1.27,0,0,0,.16-.2.22.22,0,0,1,.13-.11.17.17,0,0,1,.17,0l.34.17a1.47,1.47,0,0,1-.17.36,1.7,1.7,0,0,1-.29.31,2,2,0,0,1-.37.26,2.68,2.68,0,0,1-.42.19,2.22,2.22,0,0,1-.84.14,2.19,2.19,0,0,1-.83-.16,2.45,2.45,0,0,1-.75-.48,3.2,3.2,0,0,1-.64-.79,2.16,2.16,0,0,1-.29-.76,1.53,1.53,0,0,1,0-.71,1.37,1.37,0,0,1,.37-.59A1.72,1.72,0,0,1,408.1,452.11Zm.29.47a1,1,0,0,0-.64.55,1.2,1.2,0,0,0,.07.88l2.18-.77a1.68,1.68,0,0,0-.3-.39,1.36,1.36,0,0,0-.39-.25,1.13,1.13,0,0,0-.44-.1A1.16,1.16,0,0,0,408.39,452.58Zm4,2a.58.58,0,0,1-.06-.17.78.78,0,0,1,0-.16.49.49,0,0,1,.1-.15.69.69,0,0,1,.17-.1.66.66,0,0,1,.24,0,.46.46,0,0,1,.22.06.59.59,0,0,1,.19.13l.15.18a1.42,1.42,0,0,1,.14.36,1.34,1.34,0,0,1,.06.4,2,2,0,0,1,0,.42,2.3,2.3,0,0,1-.14.42l-.18-.07a.15.15,0,0,1-.11-.08.16.16,0,0,1,0-.12.84.84,0,0,0,0-.14,1.18,1.18,0,0,0,0-.2,1.76,1.76,0,0,0,0-.23.8.8,0,0,0,0-.26l-.05,0a.52.52,0,0,1-.21,0l-.2,0-.18-.11A1.15,1.15,0,0,1,412.38,454.56Zm4.94-1.14a1.27,1.27,0,0,1-.88,0,1.33,1.33,0,0,1-.66-.61l-1.32-2.25-.48.17a.19.19,0,0,1-.13,0,.19.19,0,0,1-.11-.09l-.15-.26.62-.31-.51-1.19a.21.21,0,0,1,0-.11.16.16,0,0,1,.09-.07l.36-.13.74,1.27,1.15-.41.28.47-1.15.41,1.29,2.2a.68.68,0,0,0,.32.31.62.62,0,0,0,.38,0,.5.5,0,0,0,.18-.1,1.14,1.14,0,0,0,.11-.11l.06-.09a.17.17,0,0,1,.06-.06.17.17,0,0,1,.13,0l.39.23a1.14,1.14,0,0,1-.29.41A1.42,1.42,0,0,1,417.32,453.42Zm1.11-5a1.84,1.84,0,0,1,.73-.12,1.94,1.94,0,0,1,.71.13,2.08,2.08,0,0,1,.65.39,2.64,2.64,0,0,1,.53.65.61.61,0,0,1,.09.22.14.14,0,0,1-.11.1l-2.67.95a2.19,2.19,0,0,0,.46.56,1.63,1.63,0,0,0,.51.34,1.33,1.33,0,0,0,.55.12,1.62,1.62,0,0,0,.56-.1,1.57,1.57,0,0,0,.43-.21l.26-.24.16-.21a.22.22,0,0,1,.13-.11.2.2,0,0,1,.17,0l.33.17a1,1,0,0,1-.16.36,1.75,1.75,0,0,1-.29.32,2.4,2.4,0,0,1-.37.25,2,2,0,0,1-.42.19,2.48,2.48,0,0,1-.84.15,2.37,2.37,0,0,1-.83-.17,2.45,2.45,0,0,1-.76-.47,3.13,3.13,0,0,1-.63-.79,2.55,2.55,0,0,1-.3-.77,1.53,1.53,0,0,1,0-.71,1.35,1.35,0,0,1,.36-.59A1.84,1.84,0,0,1,418.43,448.45Zm.29.47a.94.94,0,0,0-.64.56,1.13,1.13,0,0,0,.07.87l2.18-.77a1.72,1.72,0,0,0-.31-.39,1.19,1.19,0,0,0-.38-.25,1.34,1.34,0,0,0-.45-.1A1.33,1.33,0,0,0,418.72,448.92Zm4.46,2.36L421,447.6l.42-.15a.24.24,0,0,1,.27.07l.27.36a1.66,1.66,0,0,1,.26-.59,1.12,1.12,0,0,1,.54-.39,1.23,1.23,0,0,1,.78,0,1.7,1.7,0,0,1,.69.43,1.21,1.21,0,0,1,0-.43,1.09,1.09,0,0,1,.17-.34,1,1,0,0,1,.28-.27,1.59,1.59,0,0,1,.37-.18,1.69,1.69,0,0,1,.62-.11,1.39,1.39,0,0,1,.57.12,1.59,1.59,0,0,1,.52.35,2.1,2.1,0,0,1,.44.56l1.37,2.34-.7.25-1.37-2.34a1.36,1.36,0,0,0-.59-.58,1,1,0,0,0-.73,0,.75.75,0,0,0-.3.18.68.68,0,0,0-.18.26.63.63,0,0,0,0,.34,1.12,1.12,0,0,0,.16.41l1.37,2.34-.71.25-1.37-2.34a1.32,1.32,0,0,0-.58-.59.87.87,0,0,0-.69,0,.79.79,0,0,0-.41.3,1.26,1.26,0,0,0-.21.5l1.6,2.74Zm7.24-1.07-2.88-4.92.42-.15a.25.25,0,0,1,.27.07l.31.42a1.67,1.67,0,0,1,.32-.67,1.34,1.34,0,0,1,.66-.45,1.74,1.74,0,0,1,1.39.09,2.37,2.37,0,0,1,.65.48,4,4,0,0,1,.58.77,2.88,2.88,0,0,1,.33.81,1.75,1.75,0,0,1,0,.72,1.33,1.33,0,0,1-.31.6,1.53,1.53,0,0,1-.64.4,1.67,1.67,0,0,1-.71.11,1.92,1.92,0,0,1-.65-.15l.95,1.63Zm-.83-5.09a1.06,1.06,0,0,0-.52.36,1.39,1.39,0,0,0-.23.58l1,1.77a1.47,1.47,0,0,0,.62.19,1.66,1.66,0,0,0,.58-.08.9.9,0,0,0,.64-.68,1.71,1.71,0,0,0-.31-1.15,3.22,3.22,0,0,0-.43-.59,1.57,1.57,0,0,0-.45-.35,1.1,1.1,0,0,0-.46-.13A1.18,1.18,0,0,0,429.59,445.12Zm3.91-2a2.76,2.76,0,0,1,.88-.15,2.5,2.5,0,0,1,.82.17,2.4,2.4,0,0,1,.73.47,3.05,3.05,0,0,1,.92,1.56,1.37,1.37,0,0,1,0,.73,1.28,1.28,0,0,1-.37.59,2.11,2.11,0,0,1-.72.42,2.7,2.7,0,0,1-.87.15,2.32,2.32,0,0,1-.83-.17,2.56,2.56,0,0,1-.73-.46,3,3,0,0,1-.6-.74,2.72,2.72,0,0,1-.32-.82,1.64,1.64,0,0,1,0-.74,1.31,1.31,0,0,1,.38-.59A1.84,1.84,0,0,1,433.5,443.11Zm1.92,3.28a.89.89,0,0,0,.68-.68,1.77,1.77,0,0,0-.3-1.12,2.34,2.34,0,0,0-.9-.92,1.35,1.35,0,0,0-1.1-.05,1.2,1.2,0,0,0-.47.28.78.78,0,0,0-.21.4,1.05,1.05,0,0,0,0,.52,2.43,2.43,0,0,0,.27.61,2.7,2.7,0,0,0,.41.56,2,2,0,0,0,.48.36,1.33,1.33,0,0,0,.53.13A1.47,1.47,0,0,0,435.42,446.39Zm3.05-.53-2.15-3.68.4-.14a.31.31,0,0,1,.18,0,.31.31,0,0,1,.14.12l.39.56a1.45,1.45,0,0,1,.16-.78,1,1,0,0,1,.58-.47,1.32,1.32,0,0,1,.32-.07h.31l.19.52a.09.09,0,0,1-.07.13.44.44,0,0,1-.19,0,1.08,1.08,0,0,0-.34.08.83.83,0,0,0-.51.41,1.36,1.36,0,0,0-.07.72l1.36,2.34Zm3.36-5.63,2.15,3.68-.7.25-2.15-3.68Zm-.51-1.21a.7.7,0,0,1,.06.19.58.58,0,0,1,0,.19.31.31,0,0,1-.1.15.5.5,0,0,1-.17.11.68.68,0,0,1-.43,0l-.2-.11a1.07,1.07,0,0,1-.14-.16.38.38,0,0,1-.06-.19.4.4,0,0,1,0-.19.39.39,0,0,1,.1-.16.4.4,0,0,1,.17-.1.52.52,0,0,1,.21,0,.79.79,0,0,1,.22.05.56.56,0,0,1,.2.11A.57.57,0,0,1,441.32,439Zm3.91,4.45-2.15-3.68.42-.15a.25.25,0,0,1,.27.07l.29.38a1.86,1.86,0,0,1,.33-.64A1.47,1.47,0,0,1,445,439a1.63,1.63,0,0,1,.64-.11,1.41,1.41,0,0,1,.58.14,1.73,1.73,0,0,1,.52.34,2.79,2.79,0,0,1,.42.54l1.37,2.34-.71.25-1.37-2.34a1.27,1.27,0,0,0-.58-.57,1,1,0,0,0-.77,0,1.17,1.17,0,0,0-.51.35,1.43,1.43,0,0,0-.28.55l1.58,2.71Zm3.81-5.86a1.84,1.84,0,0,1,.73-.12,1.9,1.9,0,0,1,.71.13,2.08,2.08,0,0,1,.65.39,2.64,2.64,0,0,1,.53.65.61.61,0,0,1,.09.22.14.14,0,0,1-.11.1l-2.67.95a2.19,2.19,0,0,0,.46.56,1.63,1.63,0,0,0,.51.34,1.33,1.33,0,0,0,.55.12,1.89,1.89,0,0,0,1-.31l.26-.24a2,2,0,0,0,.16-.21.22.22,0,0,1,.13-.11.2.2,0,0,1,.17,0l.33.17a1,1,0,0,1-.16.36,1.75,1.75,0,0,1-.29.32,2.68,2.68,0,0,1-.79.44,2.48,2.48,0,0,1-.84.15,2.37,2.37,0,0,1-.83-.17,2.45,2.45,0,0,1-.76-.47,3.37,3.37,0,0,1-.63-.79,2.28,2.28,0,0,1-.29-.77,1.41,1.41,0,0,1,0-.71,1.37,1.37,0,0,1,.37-.59A1.72,1.72,0,0,1,449,437.61Zm.29.47a1,1,0,0,0-.64.56,1.17,1.17,0,0,0,.07.87l2.18-.77a1.68,1.68,0,0,0-.3-.39,1.36,1.36,0,0,0-.39-.25,1.34,1.34,0,0,0-.45-.1A1.33,1.33,0,0,0,449.33,438.08Zm4.46,2.36-2.15-3.68.4-.14a.27.27,0,0,1,.19,0,.36.36,0,0,1,.14.12l.38.55a1.5,1.5,0,0,1,.16-.78,1,1,0,0,1,.58-.47,1.32,1.32,0,0,1,.32-.07,1.58,1.58,0,0,1,.31,0l.19.51a.1.1,0,0,1-.07.14l-.19,0a1.37,1.37,0,0,0-.34.07.82.82,0,0,0-.5.42,1.24,1.24,0,0,0-.08.71l1.37,2.35Zm3.2-1.14-2.15-3.67.42-.15a.23.23,0,0,1,.27.06l.27.36a1.6,1.6,0,0,1,.25-.58,1.2,1.2,0,0,1,.55-.39,1.23,1.23,0,0,1,.78,0,1.81,1.81,0,0,1,.69.43,1.17,1.17,0,0,1,0-.42,1.14,1.14,0,0,1,.17-.35,1.35,1.35,0,0,1,.65-.44,1.68,1.68,0,0,1,.61-.11,1.4,1.4,0,0,1,.58.12,1.59,1.59,0,0,1,.52.35,2.47,2.47,0,0,1,.44.55l1.37,2.35-.71.25-1.37-2.35a1.35,1.35,0,0,0-.58-.58,1,1,0,0,0-.73,0,.75.75,0,0,0-.3.18.68.68,0,0,0-.18.26.63.63,0,0,0,0,.34,1.12,1.12,0,0,0,.16.41l1.37,2.34-.71.25L458,436.13a1.4,1.4,0,0,0-.58-.6.87.87,0,0,0-.69,0,.82.82,0,0,0-.42.3,1.44,1.44,0,0,0-.2.49l1.6,2.74Zm5.14-6.26,2.15,3.68-.7.25-2.15-3.68Zm-.51-1.21a.76.76,0,0,1,.06.2.57.57,0,0,1,0,.18.31.31,0,0,1-.1.15.45.45,0,0,1-.17.11.78.78,0,0,1-.22,0,.93.93,0,0,1-.22,0,.72.72,0,0,1-.19-.11.54.54,0,0,1-.14-.16.49.49,0,0,1-.07-.19.58.58,0,0,1,0-.19.86.86,0,0,1,.1-.16.52.52,0,0,1,.18-.1.39.39,0,0,1,.21,0,.54.54,0,0,1,.22,0,.56.56,0,0,1,.2.11A.75.75,0,0,1,461.62,431.83Zm4.41.56a.14.14,0,0,1-.1.14.42.42,0,0,1-.16,0l-.24,0h-.31a1.59,1.59,0,0,0-.38.09.87.87,0,0,0-.29.15.67.67,0,0,0-.18.2.46.46,0,0,0-.06.23.47.47,0,0,0,.07.22.47.47,0,0,0,.23.21,1,1,0,0,0,.33.08h.4l.45,0h.46a1.61,1.61,0,0,1,.44.06,1.38,1.38,0,0,1,.39.18,1.06,1.06,0,0,1,.31.35,1.3,1.3,0,0,1,.18.51,1,1,0,0,1-.07.47,1.19,1.19,0,0,1-.34.42,1.93,1.93,0,0,1-.59.32,2.48,2.48,0,0,1-.84.15A3,3,0,0,1,465,436l0-.31a.17.17,0,0,1,0-.1.19.19,0,0,1,.1-.06.28.28,0,0,1,.18,0l.26,0,.34,0a1.55,1.55,0,0,0,.43-.1.85.85,0,0,0,.33-.17.54.54,0,0,0,.18-.23.41.41,0,0,0,0-.24.57.57,0,0,0-.08-.25.51.51,0,0,0-.24-.22.9.9,0,0,0-.33-.09h-.41l-.45,0h-.46a2.12,2.12,0,0,1-.45-.07,1.66,1.66,0,0,1-.4-.2,1.17,1.17,0,0,1-.32-.37,1,1,0,0,1-.14-.43.83.83,0,0,1,.08-.44,1,1,0,0,1,.31-.4,1.79,1.79,0,0,1,.55-.3,2.47,2.47,0,0,1,.78-.14,2.19,2.19,0,0,1,.73.12Zm7.29,1.13a.25.25,0,0,1-.27-.07l-.32-.42a1.81,1.81,0,0,1-.32.67,1.4,1.4,0,0,1-.66.44,1.72,1.72,0,0,1-1.38-.09,2.23,2.23,0,0,1-.65-.48,3.61,3.61,0,0,1-.58-.77,2.83,2.83,0,0,1-.33-.8,1.64,1.64,0,0,1,0-.73,1.28,1.28,0,0,1,.31-.6,1.46,1.46,0,0,1,.64-.4,1.62,1.62,0,0,1,.7-.11,1.86,1.86,0,0,1,.65.15l-1.19-2,.71-.25,3.12,5.35Zm-1.64,0a1.06,1.06,0,0,0,.52-.36,1.61,1.61,0,0,0,.24-.58l-1-1.78a1.64,1.64,0,0,0-.63-.18,1.61,1.61,0,0,0-.57.08.91.91,0,0,0-.65.68,1.82,1.82,0,0,0,.31,1.15,3.94,3.94,0,0,0,.43.59,1.72,1.72,0,0,0,.45.35,1.1,1.1,0,0,0,.46.13A1.16,1.16,0,0,0,471.68,433.53Zm2.65-4.88a2.28,2.28,0,0,1,.73-.12,2,2,0,0,1,.72.13,2.2,2.2,0,0,1,.64.4,2.5,2.5,0,0,1,.54.65.46.46,0,0,1,.08.21c0,.05,0,.08-.11.1l-2.67,1a2.72,2.72,0,0,0,.46.57,2,2,0,0,0,.51.34,1.75,1.75,0,0,0,.55.12,1.9,1.9,0,0,0,.57-.1,2,2,0,0,0,.42-.22,1.54,1.54,0,0,0,.26-.24l.16-.2a.29.29,0,0,1,.13-.12.21.21,0,0,1,.17,0l.34.16a1.12,1.12,0,0,1-.17.37,2.09,2.09,0,0,1-.29.31,2,2,0,0,1-.37.25,2.71,2.71,0,0,1-.42.2,2.64,2.64,0,0,1-.84.14,2.4,2.4,0,0,1-.83-.16,2.65,2.65,0,0,1-.75-.48,3.2,3.2,0,0,1-.64-.79,2.24,2.24,0,0,1-.29-.76,1.53,1.53,0,0,1,0-.71,1.47,1.47,0,0,1,.37-.6A2.07,2.07,0,0,1,474.33,428.65Zm.29.47a1,1,0,0,0-.64.56,1.2,1.2,0,0,0,.07.88l2.19-.78a1.66,1.66,0,0,0-.31-.38,1.4,1.4,0,0,0-.39-.26,1.12,1.12,0,0,0-.44-.09A1.36,1.36,0,0,0,474.62,429.12Zm4.46,2.36-2.15-3.68.42-.15a.25.25,0,0,1,.27.07l.27.36a1.66,1.66,0,0,1,.26-.59,1,1,0,0,1,.55-.38,1.17,1.17,0,0,1,.78,0,1.7,1.7,0,0,1,.69.43,1.17,1.17,0,0,1,0-.42,1.27,1.27,0,0,1,.17-.35,1.44,1.44,0,0,1,.28-.27,2.53,2.53,0,0,1,.37-.18,1.71,1.71,0,0,1,.62-.1,1.47,1.47,0,0,1,.58.12,1.66,1.66,0,0,1,.52.34,2.54,2.54,0,0,1,.44.56l1.36,2.34-.7.25-1.37-2.34a1.31,1.31,0,0,0-.59-.58.92.92,0,0,0-.73,0,1.11,1.11,0,0,0-.3.17.76.76,0,0,0-.18.26.8.8,0,0,0,0,.35,1,1,0,0,0,.15.4l1.37,2.34-.71.25-1.36-2.34a1.44,1.44,0,0,0-.59-.59.87.87,0,0,0-.69,0,.85.85,0,0,0-.41.31,1.08,1.08,0,0,0-.2.49l1.6,2.74Zm5.95-6.62a2.49,2.49,0,0,1,.88-.14,2.26,2.26,0,0,1,.82.16,2.4,2.4,0,0,1,.73.47,2.86,2.86,0,0,1,.59.73,2.66,2.66,0,0,1,.33.83,1.6,1.6,0,0,1,0,.73,1.26,1.26,0,0,1-.38.6,2.11,2.11,0,0,1-.71.41,2.76,2.76,0,0,1-.88.15,2.31,2.31,0,0,1-.82-.17,2.36,2.36,0,0,1-.73-.46,2.88,2.88,0,0,1-.92-1.56,1.52,1.52,0,0,1,0-.74,1.31,1.31,0,0,1,.38-.59A2.12,2.12,0,0,1,485,424.86Zm1.92,3.28a.91.91,0,0,0,.68-.67,1.78,1.78,0,0,0-.3-1.13,2.41,2.41,0,0,0-.9-.92,1.35,1.35,0,0,0-1.1-.05,1.25,1.25,0,0,0-.47.28.82.82,0,0,0-.21.4,1.17,1.17,0,0,0,0,.52,3.47,3.47,0,0,0,.27.61,2.82,2.82,0,0,0,.42.56,1.9,1.9,0,0,0,.47.36,1.67,1.67,0,0,0,.53.14A1.34,1.34,0,0,0,487,428.14Zm4-4.52,0,.08s0,0-.08.06h-.15l-.24,0a1.7,1.7,0,0,0-.32,0,1.34,1.34,0,0,0-.4.08,1.16,1.16,0,0,0-.46.28,1,1,0,0,0-.22.41,1.17,1.17,0,0,0,0,.52,2.78,2.78,0,0,0,.26.61,2.85,2.85,0,0,0,.43.56,2,2,0,0,0,.49.36,1.61,1.61,0,0,0,.52.14,1.46,1.46,0,0,0,.54-.09,1.34,1.34,0,0,0,.4-.2,1.37,1.37,0,0,0,.2-.23c.05-.07.08-.13.11-.18a.15.15,0,0,1,.11-.11.2.2,0,0,1,.17,0l.34.17a1.25,1.25,0,0,1-.41.66,2.3,2.3,0,0,1-.75.43,2,2,0,0,1-.77.12,2.27,2.27,0,0,1-.77-.17,2.71,2.71,0,0,1-.73-.46,2.88,2.88,0,0,1-.6-.76,2.53,2.53,0,0,1-.32-.8,1.5,1.5,0,0,1,0-.73,1.34,1.34,0,0,1,.36-.6,2,2,0,0,1,.73-.43,2.4,2.4,0,0,1,.82-.14,2.69,2.69,0,0,1,.78.15Zm2.73,2.68-2.15-3.67.4-.15a.29.29,0,0,1,.18,0,.24.24,0,0,1,.14.11l.39.56a1.6,1.6,0,0,1,.15-.78,1,1,0,0,1,.59-.47,1.32,1.32,0,0,1,.32-.07,1.06,1.06,0,0,1,.31,0l.19.51a.11.11,0,0,1-.07.14l-.19,0a1.46,1.46,0,0,0-.34.08.84.84,0,0,0-.51.42,1.31,1.31,0,0,0-.07.71l1.36,2.34Zm1.83-5.08,2.15,3.67-.7.25-2.16-3.67ZM495,420a.33.33,0,0,1,.06.19.37.37,0,0,1,0,.18.54.54,0,0,1-.1.16.52.52,0,0,1-.18.1.49.49,0,0,1-.21,0,.87.87,0,0,1-.22-.05.69.69,0,0,1-.19-.1.46.46,0,0,1-.14-.17.44.44,0,0,1-.07-.19.58.58,0,0,1,0-.19.4.4,0,0,1,.1-.15.45.45,0,0,1,.17-.11.83.83,0,0,1,.22,0,.7.7,0,0,1,.42.15A.46.46,0,0,1,495,420Zm5.17,4.07a1.27,1.27,0,0,1-.88,0,1.38,1.38,0,0,1-.66-.61l-1.32-2.25-.48.17h-.13a.19.19,0,0,1-.11-.09l-.15-.26.62-.31-.51-1.19a.2.2,0,0,1,0-.11.16.16,0,0,1,.09-.07l.36-.13.74,1.27,1.15-.41.28.47L498,421l1.29,2.2a.61.61,0,0,0,.32.3.5.5,0,0,0,.38,0,.38.38,0,0,0,.18-.09l.11-.11a.35.35,0,0,1,.06-.09l.06-.06a.17.17,0,0,1,.13,0l.39.23a1.11,1.11,0,0,1-.29.4A1.44,1.44,0,0,1,500.18,424.08Zm.16-4.57,1.37,2.35a1.34,1.34,0,0,0,.59.57,1,1,0,0,0,.77,0,1,1,0,0,0,.5-.34,1.45,1.45,0,0,0,.29-.55l-1.59-2.71.71-.25,2.15,3.68-.42.14a.23.23,0,0,1-.27-.06l-.29-.38a1.86,1.86,0,0,1-.33.64,1.57,1.57,0,0,1-.66.42,1.6,1.6,0,0,1-1.22,0,2,2,0,0,1-.52-.35,2.55,2.55,0,0,1-.41-.54l-1.37-2.35Zm6,2.34-2.15-3.68.42-.15a.24.24,0,0,1,.27.07l.27.36a1.65,1.65,0,0,1,.25-.59,1.2,1.2,0,0,1,.55-.39,1.23,1.23,0,0,1,.78,0,1.7,1.7,0,0,1,.69.43,1.21,1.21,0,0,1,0-.43,1.14,1.14,0,0,1,.45-.61,1.52,1.52,0,0,1,.36-.18,1.77,1.77,0,0,1,.62-.11,1.43,1.43,0,0,1,.58.12,1.76,1.76,0,0,1,.52.35,2.32,2.32,0,0,1,.44.56l1.37,2.34-.71.25-1.37-2.34a1.29,1.29,0,0,0-.58-.58,1,1,0,0,0-.73,0,.75.75,0,0,0-.3.18.68.68,0,0,0-.18.26.63.63,0,0,0,0,.34,1.12,1.12,0,0,0,.16.41l1.36,2.34-.7.25-1.37-2.34a1.37,1.37,0,0,0-.58-.59.87.87,0,0,0-.69,0,.82.82,0,0,0-.42.3,1.42,1.42,0,0,0-.2.5l1.6,2.74Zm7.45-7.15a1.84,1.84,0,0,1,.73-.12,1.94,1.94,0,0,1,.71.13,2.08,2.08,0,0,1,.65.39,2.64,2.64,0,0,1,.53.65.61.61,0,0,1,.09.22s0,.07-.11.1l-2.67.94a2.44,2.44,0,0,0,.46.57,1.63,1.63,0,0,0,.51.34,1.33,1.33,0,0,0,.55.12,1.62,1.62,0,0,0,.56-.1,1.57,1.57,0,0,0,.43-.21,3.18,3.18,0,0,0,.26-.25l.16-.2a.24.24,0,0,1,.12-.11.23.23,0,0,1,.18,0l.33.17a1,1,0,0,1-.16.36,1.75,1.75,0,0,1-.29.32,3.41,3.41,0,0,1-.37.25,2.6,2.6,0,0,1-.42.19,2.48,2.48,0,0,1-.84.15,2.37,2.37,0,0,1-.83-.17,2.45,2.45,0,0,1-.76-.47,3.13,3.13,0,0,1-.63-.79,2.55,2.55,0,0,1-.3-.77,1.53,1.53,0,0,1,0-.71,1.26,1.26,0,0,1,.36-.59A1.76,1.76,0,0,1,513.74,414.7Zm.29.47a1,1,0,0,0-.65.56,1.18,1.18,0,0,0,.08.87l2.18-.77a1.72,1.72,0,0,0-.31-.39,1.19,1.19,0,0,0-.38-.25,1.34,1.34,0,0,0-.45-.1A1.33,1.33,0,0,0,514,415.17Zm2.92-1.54,1.37,2.35a1.34,1.34,0,0,0,.59.57,1,1,0,0,0,.77,0,1.09,1.09,0,0,0,.5-.34,1.43,1.43,0,0,0,.28-.55L518.88,413l.7-.25,2.15,3.68-.42.14a.22.22,0,0,1-.26-.06l-.29-.38a1.72,1.72,0,0,1-.34.64,1.47,1.47,0,0,1-.65.42,1.84,1.84,0,0,1-.64.11,1.5,1.5,0,0,1-.59-.14,1.82,1.82,0,0,1-.51-.34,3.24,3.24,0,0,1-.42-.54l-1.37-2.35Zm5.94,2.34-2.15-3.68.42-.15a.24.24,0,0,1,.27.07l.27.36A1.66,1.66,0,0,1,522,412a1.1,1.1,0,0,1,.55-.39,1.23,1.23,0,0,1,.78,0,1.6,1.6,0,0,1,.69.43,1.22,1.22,0,0,1,0-.43,1.2,1.2,0,0,1,.17-.34,1,1,0,0,1,.28-.27,1.41,1.41,0,0,1,.37-.18,1.73,1.73,0,0,1,.62-.11,1.47,1.47,0,0,1,.58.12,1.7,1.7,0,0,1,.52.35,2.32,2.32,0,0,1,.44.56l1.37,2.34-.71.25L526.26,412a1.26,1.26,0,0,0-.59-.58,1,1,0,0,0-1,.16.56.56,0,0,0-.17.26.63.63,0,0,0,0,.34,1.08,1.08,0,0,0,.15.41l1.37,2.34-.7.25-1.37-2.34a1.37,1.37,0,0,0-.58-.59.89.89,0,0,0-.7,0,.83.83,0,0,0-.41.3,1.13,1.13,0,0,0-.2.49l1.6,2.75Zm7.45-7.15a1.87,1.87,0,0,1,.73-.12,2,2,0,0,1,.72.13,1.87,1.87,0,0,1,.64.39,2.31,2.31,0,0,1,.54.65c.06.11.09.18.08.22s0,.07-.1.1l-2.68.94a3.08,3.08,0,0,0,.46.57,1.79,1.79,0,0,0,.52.34,1.29,1.29,0,0,0,.54.12,1.63,1.63,0,0,0,.57-.1,1.49,1.49,0,0,0,.42-.21,1.57,1.57,0,0,0,.26-.25,1.27,1.27,0,0,0,.16-.2.26.26,0,0,1,.13-.11.2.2,0,0,1,.17,0l.34.17a1.08,1.08,0,0,1-.17.36,1.45,1.45,0,0,1-.29.32,2.65,2.65,0,0,1-.37.25,2.17,2.17,0,0,1-.41.19,2.5,2.5,0,0,1-.85.15,2.41,2.41,0,0,1-.83-.17,2.53,2.53,0,0,1-.75-.47,3.26,3.26,0,0,1-.64-.8,2.16,2.16,0,0,1-.29-.76,1.68,1.68,0,0,1,0-.71,1.37,1.37,0,0,1,.37-.59A1.79,1.79,0,0,1,530.34,408.82Zm.3.47a.93.93,0,0,0-.65.56,1.18,1.18,0,0,0,.07.87l2.19-.77a1.72,1.72,0,0,0-.31-.39,1.36,1.36,0,0,0-.39-.25,1.34,1.34,0,0,0-.44-.1A1.29,1.29,0,0,0,530.64,409.29Zm3.09-1.6,2.15,3.68-.71.25L533,407.94Zm-.52-1.21a.35.35,0,0,1,.06.19.41.41,0,0,1,0,.19.39.39,0,0,1-.11.15.42.42,0,0,1-.17.11l-.21,0-.22,0a1.18,1.18,0,0,1-.19-.11.52.52,0,0,1-.14-.16.53.53,0,0,1-.07-.2.36.36,0,0,1,0-.18.44.44,0,0,1,.1-.16.5.5,0,0,1,.17-.11.78.78,0,0,1,.22,0,.59.59,0,0,1,.22,0,.52.52,0,0,1,.19.11A.38.38,0,0,1,533.21,406.48Zm3.44,4.07a.33.33,0,0,1,0-.16.47.47,0,0,1,0-.17.45.45,0,0,1,.1-.14.37.37,0,0,1,.17-.1.67.67,0,0,1,.24,0,.79.79,0,0,1,.22.06.59.59,0,0,1,.19.13,1.57,1.57,0,0,1,.15.19,1.42,1.42,0,0,1,.14.36,1.32,1.32,0,0,1,.06.39,2.15,2.15,0,0,1,0,.43,2,2,0,0,1-.14.41l-.18-.06a.2.2,0,0,1-.11-.09.14.14,0,0,1,0-.11.54.54,0,0,0,0-.15,1,1,0,0,0,0-.2.88.88,0,0,0,0-.23.74.74,0,0,0-.05-.25l0,0a.76.76,0,0,1-.21,0,.71.71,0,0,1-.2,0,.87.87,0,0,1-.18-.11A.79.79,0,0,1,536.65,410.55Zm4.78-5.59,2.88,4.92-.71.25-1-1.79a1.77,1.77,0,0,1-.33.64,1.37,1.37,0,0,1-.64.43,1.86,1.86,0,0,1-.7.1,2,2,0,0,1-.69-.19,2.53,2.53,0,0,1-.65-.48,4.42,4.42,0,0,1-.58-.77,3.11,3.11,0,0,1-.32-.8,1.64,1.64,0,0,1,0-.73,1.24,1.24,0,0,1,.31-.6,1.46,1.46,0,0,1,.64-.4,1.61,1.61,0,0,1,.73-.11,2,2,0,0,1,.7.19l-.12-.31c0-.1,0-.16.11-.2Zm.09,3.84a1.06,1.06,0,0,0,.52-.36,1.61,1.61,0,0,0,.24-.58l-1-1.78a1.51,1.51,0,0,0-.61-.18,1.63,1.63,0,0,0-.58.08.91.91,0,0,0-.65.68,1.82,1.82,0,0,0,.31,1.15,3.34,3.34,0,0,0,.43.59,1.77,1.77,0,0,0,.45.35,1.1,1.1,0,0,0,.46.13A1.42,1.42,0,0,0,541.52,408.8Zm1.7-4.47,1.37,2.34a1.34,1.34,0,0,0,.59.57,1,1,0,0,0,.77,0,1.2,1.2,0,0,0,.5-.34,1.53,1.53,0,0,0,.29-.55l-1.59-2.72.71-.25,2.15,3.68-.42.15a.24.24,0,0,1-.27-.07l-.29-.37a1.81,1.81,0,0,1-.33.63,1.46,1.46,0,0,1-.65.43,1.85,1.85,0,0,1-.64.1,1.45,1.45,0,0,1-.59-.13,1.72,1.72,0,0,1-.51-.35,2.29,2.29,0,0,1-.42-.54l-1.37-2.34Zm4.58-1.62,2.15,3.67-.7.25L547.1,403Zm-.51-1.21a.6.6,0,0,1,.06.19.57.57,0,0,1,0,.18.39.39,0,0,1-.1.16.48.48,0,0,1-.17.1.41.41,0,0,1-.22,0,.52.52,0,0,1-.21,0,.63.63,0,0,1-.2-.1.75.75,0,0,1-.14-.17.35.35,0,0,1-.06-.19.31.31,0,0,1,0-.19.38.38,0,0,1,.09-.15.42.42,0,0,1,.18-.11.51.51,0,0,1,.21,0,.7.7,0,0,1,.42.15A.61.61,0,0,1,547.29,401.5Zm4.41.56a.13.13,0,0,1-.1.13.39.39,0,0,1-.16,0l-.24,0h-.31a1.18,1.18,0,0,0-.38.08.73.73,0,0,0-.29.16.57.57,0,0,0-.18.2.43.43,0,0,0-.06.22.51.51,0,0,0,.07.23.5.5,0,0,0,.23.2,1,1,0,0,0,.33.08h.4l.45,0h.46a1.61,1.61,0,0,1,.44.06,1.18,1.18,0,0,1,.39.19,1,1,0,0,1,.31.34,1.3,1.3,0,0,1,.18.51,1,1,0,0,1-.07.48,1.08,1.08,0,0,1-.34.41,1.74,1.74,0,0,1-.59.32,2.48,2.48,0,0,1-.84.15,2.33,2.33,0,0,1-.76-.12l0-.3a.15.15,0,0,1,0-.1.2.2,0,0,1,.1-.07.28.28,0,0,1,.18,0l.26,0a1.78,1.78,0,0,0,.34,0,2,2,0,0,0,.43-.09,1,1,0,0,0,.33-.18.52.52,0,0,0,.18-.22.44.44,0,0,0,0-.25.61.61,0,0,0-.08-.25.56.56,0,0,0-.24-.22,1.15,1.15,0,0,0-.33-.09h-.41l-.45,0h-.46a2.12,2.12,0,0,1-.45-.07,1.62,1.62,0,0,1-.4-.19,1.22,1.22,0,0,1-.32-.38,1,1,0,0,1-.14-.43.83.83,0,0,1,.08-.44,1,1,0,0,1,.31-.4,1.79,1.79,0,0,1,.55-.3,2.34,2.34,0,0,1,1.51,0Zm3.63-2.1a2,2,0,0,1,.52-.11,2.17,2.17,0,0,1,.51,0l1.09-.38.14.24c0,.07,0,.15-.08.21l-.42.22a1.41,1.41,0,0,1,.44.47,1.14,1.14,0,0,1,.17.54,1,1,0,0,1-.09.48,1.18,1.18,0,0,1-.34.41,1.69,1.69,0,0,1-.55.29,2.35,2.35,0,0,1-.57.13.46.46,0,0,0-.1.23.27.27,0,0,0,0,.18.32.32,0,0,0,.23.16,1.11,1.11,0,0,0,.36,0l.46-.12.5-.15a5,5,0,0,1,.53-.12,1.77,1.77,0,0,1,.51,0,1,1,0,0,1,.45.14,1,1,0,0,1,.36.37,1,1,0,0,1,.13.51,1,1,0,0,1-.14.52,1.49,1.49,0,0,1-.43.49,2.44,2.44,0,0,1-.72.38,3.54,3.54,0,0,1-.82.19,2.09,2.09,0,0,1-.67,0,1.4,1.4,0,0,1-.52-.19,1,1,0,0,1-.32-.33.68.68,0,0,1-.08-.53,1.07,1.07,0,0,1,.34-.49,1.24,1.24,0,0,1-.39-.09.8.8,0,0,1-.29-.29.64.64,0,0,1-.06-.18.67.67,0,0,1,0-.2.9.9,0,0,1,.06-.22,1.37,1.37,0,0,1,.15-.21,1.76,1.76,0,0,1-.71-.24,1.52,1.52,0,0,1-.51-.53,1.26,1.26,0,0,1-.17-.53.87.87,0,0,1,.1-.48,1,1,0,0,1,.34-.41A1.77,1.77,0,0,1,555.33,400Zm3.56,3.5a.47.47,0,0,0-.21-.19.75.75,0,0,0-.31,0,1.63,1.63,0,0,0-.36,0,3.11,3.11,0,0,0-.41.11l-.44.12a3.39,3.39,0,0,1-.43.11,1,1,0,0,0-.23.37.54.54,0,0,0,.06.39.64.64,0,0,0,.2.2.8.8,0,0,0,.33.11,1.47,1.47,0,0,0,.42,0,2.4,2.4,0,0,0,.54-.14,2.48,2.48,0,0,0,.49-.22,1.35,1.35,0,0,0,.3-.27.63.63,0,0,0,.12-.3A.52.52,0,0,0,558.89,403.46Zm-2.42-1.55a1.08,1.08,0,0,0,.34-.19.62.62,0,0,0,.19-.25.48.48,0,0,0,0-.29,1,1,0,0,0-.12-.32,1,1,0,0,0-.54-.46,1.14,1.14,0,0,0-.77,0,.8.8,0,0,0-.53.43.69.69,0,0,0,.09.61.91.91,0,0,0,.54.46.85.85,0,0,0,.36.05A1.22,1.22,0,0,0,556.47,401.91Zm3.75.84-2.15-3.68.4-.14a.31.31,0,0,1,.18,0,.37.37,0,0,1,.14.12l.38.56a1.45,1.45,0,0,1,.16-.78,1,1,0,0,1,.59-.47,1,1,0,0,1,.32-.07h.31l.19.52a.11.11,0,0,1-.07.13l-.19,0a1.13,1.13,0,0,0-.35.08.81.81,0,0,0-.5.41,1.36,1.36,0,0,0-.08.72l1.37,2.34Zm6-2.13-.32.11a.31.31,0,0,1-.18,0,.21.21,0,0,1-.16-.09l-.28-.31a2.69,2.69,0,0,1-.17.34,1.54,1.54,0,0,1-.21.29,1.82,1.82,0,0,1-.3.23,1.76,1.76,0,0,1-.39.18,1.65,1.65,0,0,1-.48.1,1.41,1.41,0,0,1-.46-.05,1.49,1.49,0,0,1-.41-.22,1.53,1.53,0,0,1-.35-.4.86.86,0,0,1-.11-.47,1,1,0,0,1,.21-.51,2.64,2.64,0,0,1,.62-.52,5.43,5.43,0,0,1,1.08-.53l-.16-.28a1.34,1.34,0,0,0-.58-.58.94.94,0,0,0-.72,0,1,1,0,0,0-.4.22,1.28,1.28,0,0,0-.23.24c-.06.08-.1.15-.14.21a.29.29,0,0,1-.15.12.26.26,0,0,1-.15,0,.52.52,0,0,1-.13-.06l-.25-.16a1.9,1.9,0,0,1,.46-.7,2.29,2.29,0,0,1,.77-.44,1.7,1.7,0,0,1,.66-.11,1.73,1.73,0,0,1,.6.12,1.81,1.81,0,0,1,.53.35,2.45,2.45,0,0,1,.42.53Zm-2.07.26a1.59,1.59,0,0,0,.32-.16,1.16,1.16,0,0,0,.24-.2,1.56,1.56,0,0,0,.17-.25A1.26,1.26,0,0,0,565,400l-.45-.77a5.81,5.81,0,0,0-.78.37,2,2,0,0,0-.47.34.63.63,0,0,0-.19.33.46.46,0,0,0,.07.31.87.87,0,0,0,.19.23.68.68,0,0,0,.24.12.63.63,0,0,0,.27,0A1.31,1.31,0,0,0,564.15,400.88Zm2.54-4.93a2,2,0,0,1,.73-.13,2.15,2.15,0,0,1,1.36.53,2.71,2.71,0,0,1,.54.65.49.49,0,0,1,.08.22s0,.07-.11.1l-2.67.94a2.72,2.72,0,0,0,.46.57,2,2,0,0,0,.51.34,1.33,1.33,0,0,0,.55.12,1.67,1.67,0,0,0,.57-.1,1.38,1.38,0,0,0,.42-.22,1.54,1.54,0,0,0,.26-.24,1.27,1.27,0,0,0,.16-.2.22.22,0,0,1,.13-.11.2.2,0,0,1,.17,0l.34.17a1.31,1.31,0,0,1-.17.36,1.7,1.7,0,0,1-.29.31,2,2,0,0,1-.37.26,2.68,2.68,0,0,1-.42.19,2.22,2.22,0,0,1-.84.14,2.19,2.19,0,0,1-.83-.16,2.45,2.45,0,0,1-.75-.48,3.2,3.2,0,0,1-.64-.79,2.16,2.16,0,0,1-.29-.76,1.53,1.53,0,0,1,0-.71,1.37,1.37,0,0,1,.37-.59A1.72,1.72,0,0,1,566.69,396Zm.29.47a1,1,0,0,0-.64.55,1.2,1.2,0,0,0,.07.88l2.18-.77a1.68,1.68,0,0,0-.3-.39,1.36,1.36,0,0,0-.39-.25,1.21,1.21,0,0,0-.92,0Zm5.43-1.64a.11.11,0,0,1,0,.08s0,0-.07.06h-.16l-.23,0h-.32a1.29,1.29,0,0,0-.4.08,1.09,1.09,0,0,0-.46.28.79.79,0,0,0-.22.41,1.32,1.32,0,0,0,0,.52,2.43,2.43,0,0,0,.27.61,2.51,2.51,0,0,0,.43.56,2.06,2.06,0,0,0,.49.36,1.33,1.33,0,0,0,.52.13,1.27,1.27,0,0,0,.54-.08,1.4,1.4,0,0,0,.39-.2.82.82,0,0,0,.2-.23,1,1,0,0,0,.11-.18c0-.06.06-.1.11-.11a.2.2,0,0,1,.17,0l.34.17a1.24,1.24,0,0,1-.4.66,2.5,2.5,0,0,1-.75.43,2.06,2.06,0,0,1-.78.12,2.32,2.32,0,0,1-.77-.17,2.71,2.71,0,0,1-.73-.46,3.36,3.36,0,0,1-.6-.76,2.53,2.53,0,0,1-.32-.8,1.63,1.63,0,0,1,0-.73,1.47,1.47,0,0,1,.37-.6,1.94,1.94,0,0,1,.72-.43,2.21,2.21,0,0,1,.82-.14,2.57,2.57,0,0,1,.78.15Zm1.37-1.27,2.15,3.67-.71.25-2.15-3.67Zm-.52-1.21a.43.43,0,0,1,0,.38.44.44,0,0,1-.1.15.4.4,0,0,1-.17.1.54.54,0,0,1-.22,0,.8.8,0,0,1-.21-.05.57.57,0,0,1-.19-.1.61.61,0,0,1-.15-.17.42.42,0,0,1-.06-.19.35.35,0,0,1,0-.18.29.29,0,0,1,.1-.16.42.42,0,0,1,.17-.11.78.78,0,0,1,.22,0,.54.54,0,0,1,.21,0,.63.63,0,0,1,.2.1A.61.61,0,0,1,573.26,392.3Zm6.54-.93,2.88,4.93-.71.25-1-1.79a1.73,1.73,0,0,1-.33.63,1.37,1.37,0,0,1-.64.43,1.86,1.86,0,0,1-.7.1,2,2,0,0,1-.69-.19,2.53,2.53,0,0,1-.65-.48,4,4,0,0,1-.58-.77,2.79,2.79,0,0,1-.32-.8,1.81,1.81,0,0,1,0-.73,1.27,1.27,0,0,1,.32-.59A1.39,1.39,0,0,1,578,392a1.76,1.76,0,0,1,.73-.11,2.1,2.1,0,0,1,.7.19l-.12-.3a.16.16,0,0,1,.11-.21Zm.09,3.84a1,1,0,0,0,.51-.36,1.27,1.27,0,0,0,.24-.58l-1-1.77a1.51,1.51,0,0,0-.61-.18,1.28,1.28,0,0,0-.58.08.88.88,0,0,0-.65.67,1.76,1.76,0,0,0,.31,1.15,2.91,2.91,0,0,0,.43.59,1.79,1.79,0,0,0,.44.36,1.13,1.13,0,0,0,.47.12A1.21,1.21,0,0,0,579.89,395.21Zm1.7-4.47,1.37,2.35a1.46,1.46,0,0,0,.59.57,1,1,0,0,0,.77,0,1.17,1.17,0,0,0,.5-.34,1.45,1.45,0,0,0,.29-.55l-1.59-2.71.71-.25,2.15,3.67-.42.15a.23.23,0,0,1-.27-.06l-.29-.38a1.86,1.86,0,0,1-.33.64,1.57,1.57,0,0,1-.66.42,1.84,1.84,0,0,1-.64.11,1.65,1.65,0,0,1-.58-.14,1.73,1.73,0,0,1-.52-.34,2.92,2.92,0,0,1-.41-.55L580.89,391Zm5.39-2a2.4,2.4,0,0,1,.87-.14,2.26,2.26,0,0,1,1.55.63,2.89,2.89,0,0,1,.6.73,2.62,2.62,0,0,1,.32.83,1.48,1.48,0,0,1,0,.73,1.43,1.43,0,0,1-.38.6,2.26,2.26,0,0,1-.72.41,2.65,2.65,0,0,1-.87.15,2.37,2.37,0,0,1-.83-.17,2.48,2.48,0,0,1-.73-.46,2.86,2.86,0,0,1-.59-.73,2.4,2.4,0,0,1-.32-.83,1.53,1.53,0,0,1,0-.74,1.4,1.4,0,0,1,.38-.59A2.07,2.07,0,0,1,587,388.76ZM588.9,392a.89.89,0,0,0,.67-.67,1.78,1.78,0,0,0-.3-1.13,2.39,2.39,0,0,0-.89-.92,1.37,1.37,0,0,0-1.11-.05,1.2,1.2,0,0,0-.46.28.84.84,0,0,0-.22.4,1.18,1.18,0,0,0,0,.52,2.43,2.43,0,0,0,.27.61,2.8,2.8,0,0,0,.41.56,1.78,1.78,0,0,0,.48.36,1.6,1.6,0,0,0,.53.14A1.37,1.37,0,0,0,588.9,392Zm7.52-2.11-.31.11-.18,0a.26.26,0,0,1-.16-.1l-.28-.31a3.78,3.78,0,0,1-.17.35,1.86,1.86,0,0,1-.21.28,1.7,1.7,0,0,1-.3.23,2.36,2.36,0,0,1-.39.19,2.05,2.05,0,0,1-.48.1,1.76,1.76,0,0,1-.46-.06,1.49,1.49,0,0,1-.41-.22,1.25,1.25,0,0,1-.35-.4.86.86,0,0,1-.11-.47.93.93,0,0,1,.21-.5,2.27,2.27,0,0,1,.62-.53,5.46,5.46,0,0,1,1.08-.52l-.17-.29a1.22,1.22,0,0,0-.58-.57.89.89,0,0,0-.72,0,1.36,1.36,0,0,0-.4.22,1.6,1.6,0,0,0-.22.24l-.15.21a.25.25,0,0,1-.14.13.38.38,0,0,1-.15,0,.31.31,0,0,1-.13-.06l-.25-.16a1.86,1.86,0,0,1,.46-.69,2.06,2.06,0,0,1,.77-.45,1.68,1.68,0,0,1,.65-.11,1.75,1.75,0,0,1,.61.13,1.91,1.91,0,0,1,.53.34,2.45,2.45,0,0,1,.42.53Zm-2.06.25a1.6,1.6,0,0,0,.32-.15,1.14,1.14,0,0,0,.23-.2,1,1,0,0,0,.17-.25,1.36,1.36,0,0,0,.13-.3l-.45-.76a4.86,4.86,0,0,0-.78.36,2,2,0,0,0-.47.34.67.67,0,0,0-.19.33.44.44,0,0,0,.06.31.92.92,0,0,0,.2.23.94.94,0,0,0,.24.13.8.8,0,0,0,.27,0Zm6-1.63a.25.25,0,0,1-.27-.07l-.32-.42a1.68,1.68,0,0,1-.33.67,1.5,1.5,0,0,1-.65.44,1.74,1.74,0,0,1-1.39-.09,2.53,2.53,0,0,1-.65-.48,4,4,0,0,1-.58-.77,2.91,2.91,0,0,1-.32-.8,1.81,1.81,0,0,1,0-.73,1.33,1.33,0,0,1,.31-.6,1.61,1.61,0,0,1,.65-.41,1.73,1.73,0,0,1,.69-.1,2,2,0,0,1,.66.15l-1.19-2,.7-.25,3.13,5.35Zm-1.64,0a1,1,0,0,0,.51-.36,1.32,1.32,0,0,0,.24-.58l-1-1.78a1.46,1.46,0,0,0-1.19-.1.91.91,0,0,0-.65.68,1.76,1.76,0,0,0,.31,1.15,2.91,2.91,0,0,0,.43.59,1.73,1.73,0,0,0,.44.35,1.14,1.14,0,0,0,.46.13A1.44,1.44,0,0,0,598.68,388.56Zm2.78-.9a.44.44,0,0,1-.07-.19.37.37,0,0,1,0-.18.31.31,0,0,1,.1-.15.34.34,0,0,1,.17-.11.78.78,0,0,1,.22,0,.52.52,0,0,1,.21,0,.72.72,0,0,1,.19.11.43.43,0,0,1,.14.16.53.53,0,0,1,.07.2.37.37,0,0,1,0,.18.44.44,0,0,1-.1.15.52.52,0,0,1-.18.1.37.37,0,0,1-.21,0,.83.83,0,0,1-.22,0l-.18-.11A.58.58,0,0,1,601.46,387.66ZM410.8,462.87a.2.2,0,0,1,0,.11.18.18,0,0,1-.08.06.47.47,0,0,1-.2,0l-.3,0a1.79,1.79,0,0,0-.41,0,1.63,1.63,0,0,0-.92.33.67.67,0,0,0-.23.28.64.64,0,0,0-.05.33.78.78,0,0,0,.12.34.76.76,0,0,0,.32.32,1.65,1.65,0,0,0,.46.14,3.09,3.09,0,0,0,.54,0l.58,0h.61a2.2,2.2,0,0,1,.58.1,1.54,1.54,0,0,1,.53.26,1.67,1.67,0,0,1,.44.5,2.14,2.14,0,0,1,.25.69,1.32,1.32,0,0,1-.47,1.21,2,2,0,0,1-.73.41,3.08,3.08,0,0,1-1.11.18,3.39,3.39,0,0,1-1.06-.22l0-.42a.36.36,0,0,1,0-.09.15.15,0,0,1,.09-.06.37.37,0,0,1,.23,0l.37.09a3.75,3.75,0,0,0,.5,0,1.77,1.77,0,0,0,.6-.12,1.2,1.2,0,0,0,.45-.24.83.83,0,0,0,.25-.32.71.71,0,0,0,.05-.38,1,1,0,0,0-.14-.42.87.87,0,0,0-.35-.34,1.33,1.33,0,0,0-.45-.15,2.41,2.41,0,0,0-.54,0l-.58,0h-.6a2.2,2.2,0,0,1-.58-.1,1.74,1.74,0,0,1-.54-.28,1.92,1.92,0,0,1-.46-.54,1.48,1.48,0,0,1-.19-.57,1.26,1.26,0,0,1,.07-.58,1.36,1.36,0,0,1,.36-.52,2.09,2.09,0,0,1,.68-.38,2.93,2.93,0,0,1,.95-.17,2.62,2.62,0,0,1,.92.16Zm2.39,0,2.15,3.68-.71.25-2.15-3.68Zm-.52-1.21a.35.35,0,0,1,.06.19.4.4,0,0,1,0,.19.36.36,0,0,1-.1.15.42.42,0,0,1-.17.11.68.68,0,0,1-.43,0,.86.86,0,0,1-.19-.11.75.75,0,0,1-.15-.16.51.51,0,0,1-.06-.2.36.36,0,0,1,0-.18.34.34,0,0,1,.1-.16.42.42,0,0,1,.17-.11.78.78,0,0,1,.22,0,.54.54,0,0,1,.21,0,.56.56,0,0,1,.2.11A.57.57,0,0,1,412.67,461.67Zm5.16,4.07a1.22,1.22,0,0,1-.88,0,1.37,1.37,0,0,1-.66-.61L415,462.9l-.49.17a.17.17,0,0,1-.12,0,.21.21,0,0,1-.11-.1l-.15-.26.61-.31-.5-1.19a.09.09,0,0,1,0-.1s0-.06.09-.08l.36-.13.74,1.27,1.15-.41.27.47-1.15.41,1.29,2.21a.67.67,0,0,0,.33.3.62.62,0,0,0,.38,0,.55.55,0,0,0,.17-.1A.38.38,0,0,0,418,465l.07-.09a.1.1,0,0,1,.05-.06.19.19,0,0,1,.14,0l.39.24a1.11,1.11,0,0,1-.3.4A1.42,1.42,0,0,1,417.83,465.74Zm3.24-1.21-2.15-3.68.42-.15a.25.25,0,0,1,.27.07l.29.38a1.86,1.86,0,0,1,.33-.64,1.48,1.48,0,0,1,.65-.43,1.82,1.82,0,0,1,.64-.1,1.69,1.69,0,0,1,.59.13,2.11,2.11,0,0,1,.51.35,2.29,2.29,0,0,1,.42.54l1.37,2.34-.7.25-1.37-2.34a1.34,1.34,0,0,0-.59-.57,1,1,0,0,0-.77,0,1.17,1.17,0,0,0-.51.35,1.59,1.59,0,0,0-.28.55l1.59,2.71Zm3.85-5.87a2.22,2.22,0,0,1,.87-.15,2.08,2.08,0,0,1,.82.17,2.36,2.36,0,0,1,.73.46,2.82,2.82,0,0,1,.59.73,2.61,2.61,0,0,1,.33.84,1.49,1.49,0,0,1,0,.73,1.4,1.4,0,0,1-.38.59,2.09,2.09,0,0,1-.72.41,2.22,2.22,0,0,1-.87.15,2.31,2.31,0,0,1-.83-.16,2.56,2.56,0,0,1-.73-.46,3,3,0,0,1-.6-.74,2.77,2.77,0,0,1-.32-.83,1.61,1.61,0,0,1,0-.73,1.34,1.34,0,0,1,.38-.6A1.92,1.92,0,0,1,424.92,458.66Zm1.91,3.28a.9.9,0,0,0,.68-.68,1.75,1.75,0,0,0-.3-1.12,2.28,2.28,0,0,0-.9-.92,1.31,1.31,0,0,0-1.1-.06,1.5,1.5,0,0,0-.47.28.81.81,0,0,0-.21.41,1.06,1.06,0,0,0,0,.52,2.6,2.6,0,0,0,.27.61,2.63,2.63,0,0,0,.41.55,1.59,1.59,0,0,0,.48.36,1.34,1.34,0,0,0,.53.14A1.47,1.47,0,0,0,426.83,461.94Zm1.92-4.57.58-.21a.33.33,0,0,1,.17,0l.13.07,2.4,2,.24.23.21.24c0-.09-.05-.18-.08-.28a1.5,1.5,0,0,1-.06-.29l-.36-2.74a.25.25,0,0,1,0-.12.17.17,0,0,1,.12-.08l.55-.2.51,4.26-.64.22Zm6-2.21a2.34,2.34,0,0,1,.74-.12,2.17,2.17,0,0,1,.71.13,2.24,2.24,0,0,1,.65.4,2.47,2.47,0,0,1,.53.65.37.37,0,0,1,.08.22s0,.07-.1.09l-2.67,1a2.7,2.7,0,0,0,.45.57,2,2,0,0,0,.52.34,1.75,1.75,0,0,0,.55.12,1.89,1.89,0,0,0,.56-.1,1.62,1.62,0,0,0,.42-.22,1.23,1.23,0,0,0,.26-.24l.16-.2a.36.36,0,0,1,.13-.12.2.2,0,0,1,.17,0l.34.16a1.34,1.34,0,0,1-.16.37,1.76,1.76,0,0,1-.3.31,1.78,1.78,0,0,1-.36.25,2.67,2.67,0,0,1-.42.2,2.49,2.49,0,0,1-.85.14,2.3,2.3,0,0,1-.82-.16,2.7,2.7,0,0,1-.76-.48,3.2,3.2,0,0,1-.64-.79,2.47,2.47,0,0,1-.29-.76,1.52,1.52,0,0,1,0-.71,1.34,1.34,0,0,1,.36-.6A2.07,2.07,0,0,1,434.77,455.16Zm.3.47a1,1,0,0,0-.65.56,1.25,1.25,0,0,0,.07.88l2.19-.77a1.72,1.72,0,0,0-.31-.39,1.18,1.18,0,0,0-.39-.25,1.09,1.09,0,0,0-.44-.1A1.31,1.31,0,0,0,435.07,455.63Zm4.46,2.36-2.15-3.68.4-.14a.31.31,0,0,1,.18,0,.37.37,0,0,1,.14.12l.38.56a1.45,1.45,0,0,1,.16-.78,1,1,0,0,1,.59-.47,1.32,1.32,0,0,1,.32-.07h.31l.19.52c0,.07,0,.11-.07.13a.44.44,0,0,1-.19,0,1.13,1.13,0,0,0-.35.08.84.84,0,0,0-.5.41,1.36,1.36,0,0,0-.08.72l1.37,2.34Zm2.63-5.44a2.51,2.51,0,0,1,.88-.15,2.27,2.27,0,0,1,.82.17,2.36,2.36,0,0,1,.73.46,2.92,2.92,0,0,1,.59.74,2.57,2.57,0,0,1,.33.83,1.49,1.49,0,0,1,0,.73,1.23,1.23,0,0,1-.38.59,2,2,0,0,1-.71.41,2.52,2.52,0,0,1-.88.16,2.39,2.39,0,0,1-1.55-.63,3,3,0,0,1-.6-.74,2.77,2.77,0,0,1-.32-.83,1.48,1.48,0,0,1,0-.73,1.39,1.39,0,0,1,.38-.6A2,2,0,0,1,442.16,452.55Zm1.92,3.28a.92.92,0,0,0,.68-.68,1.75,1.75,0,0,0-.3-1.12,2.28,2.28,0,0,0-.9-.92,1.31,1.31,0,0,0-1.1-.05,1.13,1.13,0,0,0-.47.28.78.78,0,0,0-.21.4,1.18,1.18,0,0,0,0,.52,2.94,2.94,0,0,0,.28.61,2.7,2.7,0,0,0,.41.56,1.85,1.85,0,0,0,.47.35,1.44,1.44,0,0,0,.53.14A1.49,1.49,0,0,0,444.08,455.83Zm5.68-5.9,2.88,4.92-.71.25-1.05-1.79a1.68,1.68,0,0,1-.32.64,1.49,1.49,0,0,1-.64.42,1.7,1.7,0,0,1-.7.1,1.68,1.68,0,0,1-.69-.18,3.11,3.11,0,0,1-.65-.48,3.77,3.77,0,0,1-.58-.78,2.48,2.48,0,0,1-.32-.79,1.65,1.65,0,0,1,0-.73,1.33,1.33,0,0,1,.31-.6,1.51,1.51,0,0,1,.65-.41,1.72,1.72,0,0,1,.73-.1,2.33,2.33,0,0,1,.7.18l-.12-.3a.15.15,0,0,1,.11-.2Zm.08,3.84a1,1,0,0,0,.52-.36,1.32,1.32,0,0,0,.24-.58l-1-1.78a1.55,1.55,0,0,0-.62-.18,1.41,1.41,0,0,0-.57.08.88.88,0,0,0-.65.67,1.72,1.72,0,0,0,.31,1.16,3.22,3.22,0,0,0,.43.59,1.73,1.73,0,0,0,.44.35,1.14,1.14,0,0,0,.46.13A1.34,1.34,0,0,0,449.84,453.77Zm1.71-4.48,1.37,2.35a1.29,1.29,0,0,0,.59.57,1,1,0,0,0,.77,0,1.19,1.19,0,0,0,.5-.35,1.38,1.38,0,0,0,.29-.55l-1.59-2.71.71-.25,2.15,3.68-.42.15a.25.25,0,0,1-.27-.07l-.29-.38a1.72,1.72,0,0,1-.34.64,1.47,1.47,0,0,1-.65.42,1.6,1.6,0,0,1-1.22,0,1.76,1.76,0,0,1-.52-.35,2.55,2.55,0,0,1-.41-.54l-1.38-2.35Zm8.89,1.29-.31.11a.31.31,0,0,1-.18,0,.21.21,0,0,1-.16-.09l-.28-.31a2.69,2.69,0,0,1-.17.34,1.54,1.54,0,0,1-.21.29,2.37,2.37,0,0,1-.3.23,1.76,1.76,0,0,1-.39.18,1.65,1.65,0,0,1-.48.1,1.41,1.41,0,0,1-.46,0,1.49,1.49,0,0,1-.41-.22,1.36,1.36,0,0,1-.35-.4.86.86,0,0,1-.11-.47,1,1,0,0,1,.21-.51,2.26,2.26,0,0,1,.62-.52,5.43,5.43,0,0,1,1.08-.53l-.17-.28a1.29,1.29,0,0,0-.58-.58.94.94,0,0,0-.72,0,1.16,1.16,0,0,0-.4.22,1.6,1.6,0,0,0-.22.24l-.15.21a.24.24,0,0,1-.14.12.26.26,0,0,1-.15,0,.52.52,0,0,1-.13-.06l-.25-.16a1.9,1.9,0,0,1,.46-.7,2.19,2.19,0,0,1,.77-.44,1.68,1.68,0,0,1,.65-.11,1.54,1.54,0,0,1,.61.12,2,2,0,0,1,.53.35,2.45,2.45,0,0,1,.42.53Zm-2.06.26a1.59,1.59,0,0,0,.32-.16.9.9,0,0,0,.23-.2.85.85,0,0,0,.17-.25,1.28,1.28,0,0,0,.13-.29l-.45-.77a5.81,5.81,0,0,0-.78.37,2,2,0,0,0-.47.34.63.63,0,0,0-.19.33.45.45,0,0,0,.06.31,1.14,1.14,0,0,0,.2.23.68.68,0,0,0,.24.12.8.8,0,0,0,.27,0A1.31,1.31,0,0,0,458.38,450.84Zm.79-6.26,3.13,5.35-.71.25-3.13-5.35Zm3,.95,2.15,3.68-.71.25-2.15-3.68Zm-.52-1.21a.35.35,0,0,1,.06.19.4.4,0,0,1,0,.19.31.31,0,0,1-.1.15.42.42,0,0,1-.17.11.68.68,0,0,1-.43,0,.59.59,0,0,1-.19-.11.57.57,0,0,1-.15-.16.52.52,0,0,1-.06-.19.4.4,0,0,1,0-.19.39.39,0,0,1,.1-.16.4.4,0,0,1,.17-.1.54.54,0,0,1,.22,0,.8.8,0,0,1,.21.05.56.56,0,0,1,.2.11A.57.57,0,0,1,461.66,444.32Zm4.41.56a.14.14,0,0,1-.1.14h-.16l-.23,0h-.31a1.55,1.55,0,0,0-.39.09,1.13,1.13,0,0,0-.29.15.67.67,0,0,0-.18.2.46.46,0,0,0-.06.23.63.63,0,0,0,.07.22.47.47,0,0,0,.23.21,1.14,1.14,0,0,0,.33.08h.41l.44,0h.46a2,2,0,0,1,.44.07,1.38,1.38,0,0,1,.39.18,1.08,1.08,0,0,1,.32.35,1.46,1.46,0,0,1,.17.51.85.85,0,0,1-.07.47,1.27,1.27,0,0,1-.33.42,2,2,0,0,1-.6.32,2.47,2.47,0,0,1-.83.15,3,3,0,0,1-.77-.12l0-.31a.17.17,0,0,1,0-.1.24.24,0,0,1,.1-.06.35.35,0,0,1,.18,0l.26.05a1.84,1.84,0,0,0,.34,0,1.23,1.23,0,0,0,.43-.09,1.2,1.2,0,0,0,.34-.17.76.76,0,0,0,.18-.23.5.5,0,0,0,0-.24.57.57,0,0,0-.32-.47.9.9,0,0,0-.33-.09,1.87,1.87,0,0,0-.41,0l-.45,0H465a1.69,1.69,0,0,1-.45-.07,1.18,1.18,0,0,1-.39-.19,1.08,1.08,0,0,1-.33-.37,1,1,0,0,1-.14-.44,1,1,0,0,1,.08-.44,1.11,1.11,0,0,1,.31-.39,1.74,1.74,0,0,1,.56-.3,2.13,2.13,0,0,1,.77-.14,2.19,2.19,0,0,1,.73.12Zm4-2.16,2.88,4.93-.7.25-1-1.79a1.59,1.59,0,0,1-.33.63,1.37,1.37,0,0,1-.64.43,1.86,1.86,0,0,1-.7.1,2,2,0,0,1-.69-.19,2.33,2.33,0,0,1-.64-.48,3.61,3.61,0,0,1-.58-.77,2.83,2.83,0,0,1-.33-.8,1.64,1.64,0,0,1,0-.73,1.33,1.33,0,0,1,.31-.6,1.46,1.46,0,0,1,.64-.4,1.76,1.76,0,0,1,.73-.11,2,2,0,0,1,.7.19l-.12-.31c0-.09,0-.16.11-.2Zm.09,3.84a1.06,1.06,0,0,0,.52-.36,1.54,1.54,0,0,0,.24-.58l-1-1.77a1.59,1.59,0,0,0-.62-.18,1.28,1.28,0,0,0-.58.08.88.88,0,0,0-.65.67,1.82,1.82,0,0,0,.31,1.15,3.34,3.34,0,0,0,.43.59,1.72,1.72,0,0,0,.45.35,1.1,1.1,0,0,0,.46.13A1.16,1.16,0,0,0,470.19,446.56Zm1.7-4.47,1.38,2.34a1.35,1.35,0,0,0,.58.58,1,1,0,0,0,.77,0,1.15,1.15,0,0,0,.51-.34,1.43,1.43,0,0,0,.28-.55l-1.58-2.71.7-.25,2.15,3.67-.42.15a.23.23,0,0,1-.27-.06l-.28-.38a2.07,2.07,0,0,1-.34.64,1.53,1.53,0,0,1-.65.42,1.87,1.87,0,0,1-.64.11,1.7,1.7,0,0,1-.59-.14,1.66,1.66,0,0,1-.51-.35,2.29,2.29,0,0,1-.42-.54l-1.37-2.34Zm5.35-2A2.14,2.14,0,0,1,478,440a2.17,2.17,0,0,1,.71.13,2.24,2.24,0,0,1,.65.4,2.47,2.47,0,0,1,.53.65.37.37,0,0,1,.08.22s0,.07-.1.09l-2.67.95a2.44,2.44,0,0,0,.46.57,1.82,1.82,0,0,0,.51.34,1.75,1.75,0,0,0,.55.12,1.62,1.62,0,0,0,.56-.1,1.36,1.36,0,0,0,.42-.22,1.64,1.64,0,0,0,.27-.24l.16-.2a.34.34,0,0,1,.12-.12.2.2,0,0,1,.17,0l.34.16a1.1,1.1,0,0,1-.16.37,1.7,1.7,0,0,1-.29.31,1.85,1.85,0,0,1-.37.25,2.67,2.67,0,0,1-.42.2,2.47,2.47,0,0,1-.84.14,2.35,2.35,0,0,1-.83-.16,2.7,2.7,0,0,1-.76-.48,3,3,0,0,1-.63-.79,2.5,2.5,0,0,1-.3-.76,1.52,1.52,0,0,1,0-.71,1.34,1.34,0,0,1,.36-.6A1.91,1.91,0,0,1,477.24,440.13Zm.3.46a1,1,0,0,0-.65.56,1.21,1.21,0,0,0,.08.88l2.18-.77a1.72,1.72,0,0,0-.31-.39,1.32,1.32,0,0,0-.38-.25,1.18,1.18,0,0,0-.45-.1A1.31,1.31,0,0,0,477.54,440.59Zm4,2a.58.58,0,0,1-.06-.17.29.29,0,0,1,0-.16.31.31,0,0,1,.1-.15.55.55,0,0,1,.17-.1.46.46,0,0,1,.23,0,.54.54,0,0,1,.22,0l.19.13a.9.9,0,0,1,.15.19,1.94,1.94,0,0,1,.15.36,1.75,1.75,0,0,1,.05.4,1.5,1.5,0,0,1,0,.42,1.53,1.53,0,0,1-.14.41l-.18-.06a.19.19,0,0,1-.11-.08.13.13,0,0,1,0-.12s0-.08,0-.14a1.18,1.18,0,0,0,0-.2.88.88,0,0,0,0-.23.8.8,0,0,0-.05-.26l-.05,0a.36.36,0,0,1-.2,0,.64.64,0,0,1-.2,0,.78.78,0,0,1-.18-.11A.75.75,0,0,1,481.53,442.58Zm4.18-4.65a.13.13,0,0,1-.1.13.39.39,0,0,1-.16,0l-.23,0h-.31a1.18,1.18,0,0,0-.39.08.9.9,0,0,0-.29.16.57.57,0,0,0-.18.2.43.43,0,0,0-.06.22.68.68,0,0,0,.07.23.5.5,0,0,0,.23.2,1.14,1.14,0,0,0,.33.08H485l.44,0h.46a1.56,1.56,0,0,1,.44.06,1.18,1.18,0,0,1,.39.19,1,1,0,0,1,.32.34,1.28,1.28,0,0,1,.17.51.87.87,0,0,1-.07.48,1.15,1.15,0,0,1-.33.41,1.7,1.7,0,0,1-.6.32,2.47,2.47,0,0,1-.83.15,2.35,2.35,0,0,1-.77-.12l0-.3a.24.24,0,0,1,0-.1.26.26,0,0,1,.1-.07.3.3,0,0,1,.19,0l.25,0a1.83,1.83,0,0,0,.34,0A1.5,1.5,0,0,0,486,441a1.2,1.2,0,0,0,.34-.18.73.73,0,0,0,.18-.22.43.43,0,0,0,0-.25.49.49,0,0,0-.08-.25.56.56,0,0,0-.24-.22,1.44,1.44,0,0,0-.33-.09h-.41l-.45,0h-.46a2.13,2.13,0,0,1-.44-.07,1.34,1.34,0,0,1-.4-.19,1.32,1.32,0,0,1-.33-.37,1.08,1.08,0,0,1-.14-.44,1,1,0,0,1,.08-.44,1.24,1.24,0,0,1,.31-.4,1.74,1.74,0,0,1,.56-.3,2.11,2.11,0,0,1,.77-.13,2.19,2.19,0,0,1,.73.12Zm1.4-1.23,1.37,2.35a1.29,1.29,0,0,0,.59.57,1,1,0,0,0,.76,0,1.07,1.07,0,0,0,.51-.34,1.43,1.43,0,0,0,.28-.55L489,436l.7-.25,2.15,3.68-.42.15a.25.25,0,0,1-.27-.07l-.28-.38a1.88,1.88,0,0,1-.34.64,1.47,1.47,0,0,1-.65.42,1.63,1.63,0,0,1-.64.11,1.69,1.69,0,0,1-.59-.13,1.86,1.86,0,0,1-.51-.35,2.29,2.29,0,0,1-.42-.54L486.4,437Zm5.94,2.34-2.15-3.68.42-.15a.24.24,0,0,1,.27.07l.27.36a1.66,1.66,0,0,1,.26-.59,1.1,1.1,0,0,1,.55-.39,1.23,1.23,0,0,1,.78,0,1.7,1.7,0,0,1,.69.43,1.16,1.16,0,0,1,0-.42,1.27,1.27,0,0,1,.17-.35,1,1,0,0,1,.28-.27,1.81,1.81,0,0,1,.37-.18,1.73,1.73,0,0,1,.62-.11,1.47,1.47,0,0,1,.58.12,1.9,1.9,0,0,1,.52.35,2.32,2.32,0,0,1,.44.56l1.36,2.34-.7.25L496.42,435a1.31,1.31,0,0,0-.59-.58,1,1,0,0,0-.73,0,1.14,1.14,0,0,0-.3.18.68.68,0,0,0-.18.26.77.77,0,0,0,0,.34,1.08,1.08,0,0,0,.15.41l1.37,2.34-.71.25-1.36-2.34a1.39,1.39,0,0,0-.59-.59.87.87,0,0,0-.69,0,.83.83,0,0,0-.41.3,1.12,1.12,0,0,0-.2.5l1.6,2.74Zm6.51-2.31-2.15-3.68.42-.15a.25.25,0,0,1,.27.07l.27.36a1.61,1.61,0,0,1,.26-.58,1,1,0,0,1,.55-.39,1.17,1.17,0,0,1,.78,0,1.7,1.7,0,0,1,.69.43,1,1,0,0,1,0-.42,1,1,0,0,1,.16-.35,1.16,1.16,0,0,1,.28-.26,1.85,1.85,0,0,1,.37-.19,1.71,1.71,0,0,1,.62-.1,1.47,1.47,0,0,1,.58.12,1.66,1.66,0,0,1,.52.34,2.54,2.54,0,0,1,.44.56L505,434.8l-.71.25-1.37-2.34a1.31,1.31,0,0,0-.59-.58,1,1,0,0,0-.73,0,1.11,1.11,0,0,0-.3.17.62.62,0,0,0-.17.26.68.68,0,0,0,0,.35,1.24,1.24,0,0,0,.15.4l1.37,2.34-.7.25-1.37-2.34A1.49,1.49,0,0,0,500,433a.94.94,0,0,0-.7,0,.92.92,0,0,0-.41.31,1.08,1.08,0,0,0-.2.49l1.6,2.74Zm5.95-6.62a2.49,2.49,0,0,1,.88-.14,2.08,2.08,0,0,1,.82.17,2.36,2.36,0,0,1,.73.46,2.86,2.86,0,0,1,.59.73,2.66,2.66,0,0,1,.33.83,1.47,1.47,0,0,1,0,.73,1.31,1.31,0,0,1-.37.6,2.09,2.09,0,0,1-.72.41,2.7,2.7,0,0,1-.87.15,2.12,2.12,0,0,1-.83-.17,2.19,2.19,0,0,1-.73-.46,2.88,2.88,0,0,1-.92-1.56,1.6,1.6,0,0,1,0-.73,1.28,1.28,0,0,1,.38-.6A2.12,2.12,0,0,1,505.51,430.11Zm1.92,3.29a.9.9,0,0,0,.68-.68,1.78,1.78,0,0,0-.3-1.13,2.41,2.41,0,0,0-.9-.92,1.35,1.35,0,0,0-1.1-.05,1.33,1.33,0,0,0-.47.28.81.81,0,0,0-.21.41,1,1,0,0,0,0,.51,2.28,2.28,0,0,0,.27.61,2.46,2.46,0,0,0,.41.56,1.59,1.59,0,0,0,.48.36,1.34,1.34,0,0,0,.53.14A1.47,1.47,0,0,0,507.43,433.4Zm4-5.38a2.28,2.28,0,0,1,.73-.12,2.17,2.17,0,0,1,.71.13,2.12,2.12,0,0,1,.65.4,2.47,2.47,0,0,1,.53.65.52.52,0,0,1,.09.21s0,.08-.11.1l-2.67.95a2.44,2.44,0,0,0,.46.57,1.82,1.82,0,0,0,.51.34,1.75,1.75,0,0,0,.55.12,1.78,1.78,0,0,0,1-.32,2.05,2.05,0,0,0,.26-.24c.06-.08.12-.14.16-.2a.29.29,0,0,1,.13-.12.21.21,0,0,1,.17,0l.33.16a1.1,1.1,0,0,1-.16.37,1.7,1.7,0,0,1-.29.31,1.85,1.85,0,0,1-.37.25,2.71,2.71,0,0,1-.42.2,2.74,2.74,0,0,1-.84.14,2.35,2.35,0,0,1-.83-.16,2.7,2.7,0,0,1-.76-.48,3,3,0,0,1-.63-.79,2.5,2.5,0,0,1-.3-.76,1.52,1.52,0,0,1,0-.71,1.44,1.44,0,0,1,.36-.6A2.12,2.12,0,0,1,511.42,428Zm.29.47a.94.94,0,0,0-.64.56,1.15,1.15,0,0,0,.07.88l2.18-.78a1.66,1.66,0,0,0-.31-.38,1,1,0,0,0-.38-.25,1,1,0,0,0-.45-.1A1.31,1.31,0,0,0,511.71,428.49Zm3.09-1.6,2.15,3.68-.7.25-2.15-3.68Zm-.51-1.21a.76.76,0,0,1,.06.2.57.57,0,0,1,0,.18.39.39,0,0,1-.1.16.48.48,0,0,1-.17.1.41.41,0,0,1-.22,0,.52.52,0,0,1-.21,0,.78.78,0,0,1-.2-.11.73.73,0,0,1-.14-.16.35.35,0,0,1-.06-.19.4.4,0,0,1,0-.19.39.39,0,0,1,.1-.16.4.4,0,0,1,.17-.1.51.51,0,0,1,.21,0,.54.54,0,0,1,.22,0,.78.78,0,0,1,.2.11A.75.75,0,0,1,514.29,425.68Zm3.91,4.45-2.15-3.68.4-.14a.23.23,0,0,1,.18,0,.27.27,0,0,1,.14.11l.39.56a1.46,1.46,0,0,1,.15-.78,1,1,0,0,1,.59-.47,1.32,1.32,0,0,1,.32-.07,1.08,1.08,0,0,1,.31,0l.19.51a.09.09,0,0,1-.07.13.44.44,0,0,1-.19,0,1.36,1.36,0,0,0-.34.08.86.86,0,0,0-.51.41,1.46,1.46,0,0,0-.08.72l1.37,2.34Zm3.19-1.13-2.15-3.68.42-.15a.25.25,0,0,1,.27.07l.28.36a1.72,1.72,0,0,1,.25-.59,1.07,1.07,0,0,1,.55-.38,1.17,1.17,0,0,1,.78,0,1.7,1.7,0,0,1,.69.43,1,1,0,0,1,0-.42.88.88,0,0,1,.17-.35A1.2,1.2,0,0,1,523,424a2,2,0,0,1,.36-.18,1.71,1.71,0,0,1,.62-.1,1.43,1.43,0,0,1,.58.12,1.66,1.66,0,0,1,.52.34,2.54,2.54,0,0,1,.44.56l1.37,2.34-.71.25L524.76,425a1.31,1.31,0,0,0-.59-.58,1,1,0,0,0-1,.16.56.56,0,0,0-.18.26.67.67,0,0,0,0,.35,1.24,1.24,0,0,0,.15.4l1.37,2.34-.7.25-1.37-2.34a1.43,1.43,0,0,0-.58-.59.89.89,0,0,0-.7,0,.85.85,0,0,0-.41.31,1.21,1.21,0,0,0-.2.49l1.6,2.74Zm6-6.62a2.4,2.4,0,0,1,.87-.14,2.26,2.26,0,0,1,1.55.63,2.88,2.88,0,0,1,.92,1.56,1.48,1.48,0,0,1,0,.73,1.43,1.43,0,0,1-.38.6,2.09,2.09,0,0,1-.72.41,2.65,2.65,0,0,1-.87.15,2.32,2.32,0,0,1-.83-.17,2.48,2.48,0,0,1-.73-.46,2.86,2.86,0,0,1-.59-.73,2.66,2.66,0,0,1-.33-.83,1.65,1.65,0,0,1,0-.74,1.4,1.4,0,0,1,.38-.59A2.07,2.07,0,0,1,527.35,422.38Zm1.92,3.28a.89.89,0,0,0,.67-.67,1.78,1.78,0,0,0-.3-1.13,2.46,2.46,0,0,0-.89-.92,1.37,1.37,0,0,0-1.11-.05,1.2,1.2,0,0,0-.46.28.75.75,0,0,0-.22.41,1.15,1.15,0,0,0,0,.51,2.43,2.43,0,0,0,.27.61,2.46,2.46,0,0,0,.41.56,1.78,1.78,0,0,0,.48.36,1.6,1.6,0,0,0,.53.14A1.39,1.39,0,0,0,529.27,425.66Zm5.87-1.53a.23.23,0,0,1-.27-.06l-.33-.43a1.6,1.6,0,0,1-.32.67,1.42,1.42,0,0,1-.65.44,1.74,1.74,0,0,1-1.39-.09,2.53,2.53,0,0,1-.65-.48,3.69,3.69,0,0,1-.58-.77,2.44,2.44,0,0,1-.32-.8,1.65,1.65,0,0,1,0-.73,1.35,1.35,0,0,1,.31-.59,1.54,1.54,0,0,1,.64-.41,1.79,1.79,0,0,1,.7-.11,2.27,2.27,0,0,1,.66.16l-1.2-2,.71-.25,3.13,5.34Zm-1.65,0a1.15,1.15,0,0,0,.52-.36,1.37,1.37,0,0,0,.24-.58l-1-1.78a1.31,1.31,0,0,0-.62-.18,1.26,1.26,0,0,0-.57.08.88.88,0,0,0-.65.67,1.69,1.69,0,0,0,.31,1.15,3.32,3.32,0,0,0,.43.6,1.73,1.73,0,0,0,.44.35,1,1,0,0,0,.46.12A1.33,1.33,0,0,0,533.49,424.15Zm7.73-2.17-.31.11-.19,0a.3.3,0,0,1-.15-.09l-.28-.32a2.85,2.85,0,0,1-.17.35,1.18,1.18,0,0,1-.22.28,1.37,1.37,0,0,1-.29.24,2.16,2.16,0,0,1-.4.18,1.88,1.88,0,0,1-.47.1,1.76,1.76,0,0,1-.46-.06,1.38,1.38,0,0,1-.42-.21,1.55,1.55,0,0,1-.34-.41.83.83,0,0,1-.11-.46.93.93,0,0,1,.21-.51,2.57,2.57,0,0,1,.61-.53,5.88,5.88,0,0,1,1.09-.52l-.17-.29a1.37,1.37,0,0,0-.58-.57.9.9,0,0,0-.72,0,1.35,1.35,0,0,0-.4.21,1.2,1.2,0,0,0-.22.24,2.17,2.17,0,0,0-.15.22.29.29,0,0,1-.15.12.22.22,0,0,1-.14,0,.35.35,0,0,1-.14-.06l-.24-.16a1.82,1.82,0,0,1,.46-.69,2.1,2.1,0,0,1,.76-.45,2,2,0,0,1,.66-.11,1.75,1.75,0,0,1,.61.13,1.73,1.73,0,0,1,.52.34,2.32,2.32,0,0,1,.43.54Zm-2.06.25a1.35,1.35,0,0,0,.32-.15,1.14,1.14,0,0,0,.23-.2,1,1,0,0,0,.17-.25,2.08,2.08,0,0,0,.13-.3l-.45-.76a6.83,6.83,0,0,0-.79.36,2.49,2.49,0,0,0-.47.35.62.62,0,0,0-.18.32.43.43,0,0,0,.06.31.65.65,0,0,0,.2.23.8.8,0,0,0,.24.13.74.74,0,0,0,.26,0A1.4,1.4,0,0,0,539.16,422.23Zm4.1-4.62s0,.06,0,.08a.12.12,0,0,1-.08.05.24.24,0,0,1-.15,0l-.24,0a1.53,1.53,0,0,0-.31,0,1.27,1.27,0,0,0-.4.09,1.2,1.2,0,0,0-.47.28.91.91,0,0,0-.22.41,1.17,1.17,0,0,0,0,.52,2.54,2.54,0,0,0,.26.6,2.65,2.65,0,0,0,.43.57,1.93,1.93,0,0,0,.49.35,1.36,1.36,0,0,0,1.07.06,1.4,1.4,0,0,0,.39-.2,1.31,1.31,0,0,0,.2-.23.77.77,0,0,0,.11-.19.23.23,0,0,1,.11-.11.2.2,0,0,1,.17,0l.34.16a1.33,1.33,0,0,1-.4.67,2.28,2.28,0,0,1-.75.42,2.08,2.08,0,0,1-1.55,0,2.71,2.71,0,0,1-.73-.46,3.06,3.06,0,0,1-.6-.76,2.53,2.53,0,0,1-.32-.8,1.63,1.63,0,0,1,0-.73,1.41,1.41,0,0,1,.36-.61,2,2,0,0,1,.73-.42,2.18,2.18,0,0,1,.82-.14,2.3,2.3,0,0,1,.78.15Zm3.7-1.31a.11.11,0,0,1,0,.08.13.13,0,0,1-.07.05.28.28,0,0,1-.16,0l-.23,0a1.66,1.66,0,0,0-.32,0,1.27,1.27,0,0,0-.4.09,1.2,1.2,0,0,0-.47.28.86.86,0,0,0-.22.41,1.34,1.34,0,0,0,0,.52,2.54,2.54,0,0,0,.26.6,2.61,2.61,0,0,0,.44.57,1.73,1.73,0,0,0,.48.35,1.36,1.36,0,0,0,1.07.06,1.18,1.18,0,0,0,.39-.21,1.22,1.22,0,0,0,.31-.41.23.23,0,0,1,.11-.11.2.2,0,0,1,.17,0l.34.16a1.33,1.33,0,0,1-.4.67,2.4,2.4,0,0,1-1.53.55,2.32,2.32,0,0,1-.77-.17,2.52,2.52,0,0,1-.73-.47,3,3,0,0,1-.6-.75,2.53,2.53,0,0,1-.32-.8,1.63,1.63,0,0,1,0-.73,1.34,1.34,0,0,1,.37-.61,1.93,1.93,0,0,1,.72-.42,2.18,2.18,0,0,1,.82-.14,2.08,2.08,0,0,1,.78.15Zm1.19-1.21,1.37,2.34a1.34,1.34,0,0,0,.59.57,1,1,0,0,0,.77,0,1.27,1.27,0,0,0,.5-.34,1.49,1.49,0,0,0,.29-.56l-1.59-2.71.71-.25,2.15,3.68-.42.15a.25.25,0,0,1-.27-.07l-.29-.37a1.81,1.81,0,0,1-.33.63,1.58,1.58,0,0,1-.66.43,1.82,1.82,0,0,1-.64.1,1.63,1.63,0,0,1-.58-.13,1.76,1.76,0,0,1-.52-.35,2.55,2.55,0,0,1-.41-.54l-1.37-2.34Zm6.45-1.56a.14.14,0,0,1-.1.14h-.16l-.24,0h-.31a1.59,1.59,0,0,0-.38.09.87.87,0,0,0-.29.15.67.67,0,0,0-.18.2.46.46,0,0,0-.06.23.47.47,0,0,0,.07.22.47.47,0,0,0,.23.21,1,1,0,0,0,.33.08h.4l.45,0h.46a1.61,1.61,0,0,1,.44.06,1.38,1.38,0,0,1,.39.18,1.06,1.06,0,0,1,.31.35,1.3,1.3,0,0,1,.18.51,1,1,0,0,1-.07.47,1.19,1.19,0,0,1-.34.42,1.93,1.93,0,0,1-.59.32,2.48,2.48,0,0,1-.84.15,3,3,0,0,1-.76-.12l0-.31a.17.17,0,0,1,0-.1.19.19,0,0,1,.1-.06.28.28,0,0,1,.18,0l.26,0,.34,0a1.63,1.63,0,0,0,.43-.1,1,1,0,0,0,.33-.17.54.54,0,0,0,.18-.23.41.41,0,0,0,0-.24.73.73,0,0,0-.08-.25.51.51,0,0,0-.24-.22.9.9,0,0,0-.33-.09h-.41l-.45,0h-.46a2.12,2.12,0,0,1-.45-.07,1.66,1.66,0,0,1-.4-.2,1.17,1.17,0,0,1-.32-.37,1,1,0,0,1-.14-.44.81.81,0,0,1,.08-.43,1,1,0,0,1,.31-.4,1.79,1.79,0,0,1,.55-.3,2.47,2.47,0,0,1,.78-.14,2.19,2.19,0,0,1,.73.12Zm5.88,1.63-.31.11-.18,0a.26.26,0,0,1-.16-.1l-.28-.31a2.85,2.85,0,0,1-.17.35,1.46,1.46,0,0,1-.21.28,1.33,1.33,0,0,1-.3.23,2.36,2.36,0,0,1-.39.19,2.05,2.05,0,0,1-.48.1,1.76,1.76,0,0,1-.46-.06,1.42,1.42,0,0,1-.42-.22,1.36,1.36,0,0,1-.34-.4.85.85,0,0,1-.11-.46.93.93,0,0,1,.21-.51,2.27,2.27,0,0,1,.62-.53,5.46,5.46,0,0,1,1.08-.52l-.17-.29a1.27,1.27,0,0,0-.58-.57.94.94,0,0,0-.72,0,1.63,1.63,0,0,0-.4.22,1.2,1.2,0,0,0-.22.24,2.17,2.17,0,0,0-.15.22.26.26,0,0,1-.15.12.22.22,0,0,1-.14,0,.42.42,0,0,1-.14-.06l-.24-.16a1.82,1.82,0,0,1,.46-.69,2.1,2.1,0,0,1,.76-.45,1.73,1.73,0,0,1,1.27,0,1.73,1.73,0,0,1,.52.34,2.09,2.09,0,0,1,.43.54Zm-2.06.25a1.35,1.35,0,0,0,.32-.15,1.14,1.14,0,0,0,.23-.2,1,1,0,0,0,.17-.25,2.08,2.08,0,0,0,.13-.3l-.45-.76a5.48,5.48,0,0,0-.79.36,2.12,2.12,0,0,0-.47.35.62.62,0,0,0-.18.32.43.43,0,0,0,.06.31.92.92,0,0,0,.2.23.94.94,0,0,0,.24.13.8.8,0,0,0,.27,0Zm3.13-.63-2.15-3.68.42-.15a.25.25,0,0,1,.27.07l.27.36a1.74,1.74,0,0,1,.26-.59,1,1,0,0,1,.55-.38,1.17,1.17,0,0,1,.78,0,1.7,1.7,0,0,1,.69.43,1,1,0,0,1,0-.42,1.27,1.27,0,0,1,.17-.35,1.44,1.44,0,0,1,.28-.27,2.53,2.53,0,0,1,.37-.18,1.71,1.71,0,0,1,.62-.1,1.39,1.39,0,0,1,.57.12,1.7,1.7,0,0,1,.53.34,2.51,2.51,0,0,1,.43.56l1.37,2.34-.7.25-1.37-2.34a1.36,1.36,0,0,0-.59-.58.92.92,0,0,0-.73,0,.87.87,0,0,0-.3.17.76.76,0,0,0-.18.26,1,1,0,0,0,0,.35,1.28,1.28,0,0,0,.16.4l1.37,2.34-.71.25-1.37-2.34A1.37,1.37,0,0,0,562,411a.87.87,0,0,0-.69,0,.85.85,0,0,0-.41.31,1.21,1.21,0,0,0-.21.49l1.61,2.74Zm7.58-3.17a.44.44,0,0,1-.07-.19.55.55,0,0,1,0-.18.4.4,0,0,1,.1-.15.54.54,0,0,1,.18-.11.71.71,0,0,1,.21,0,.78.78,0,0,1,.22,0,.54.54,0,0,1,.18.11.75.75,0,0,1,.15.16.53.53,0,0,1,.07.2.38.38,0,0,1,0,.18.44.44,0,0,1-.1.15.48.48,0,0,1-.17.1.54.54,0,0,1-.22,0l-.21,0a.72.72,0,0,1-.19-.11A.79.79,0,0,1,569.13,411.61Zm1.68-.59a.49.49,0,0,1-.07-.19.5.5,0,0,1,0-.18.54.54,0,0,1,.1-.16.52.52,0,0,1,.18-.1.49.49,0,0,1,.21,0,.79.79,0,0,1,.22,0,.52.52,0,0,1,.18.1.8.8,0,0,1,.15.17.49.49,0,0,1,.07.19.34.34,0,0,1,0,.18.31.31,0,0,1-.1.15.5.5,0,0,1-.17.11.78.78,0,0,1-.22,0,.52.52,0,0,1-.21,0,.69.69,0,0,1-.19-.1A1.15,1.15,0,0,1,570.81,411Zm1.68-.6a.44.44,0,0,1-.07-.19.55.55,0,0,1,0-.18.4.4,0,0,1,.1-.15.54.54,0,0,1,.18-.11.71.71,0,0,1,.21,0,.78.78,0,0,1,.22,0,.54.54,0,0,1,.18.11.75.75,0,0,1,.15.16.53.53,0,0,1,.07.2.38.38,0,0,1,0,.18.44.44,0,0,1-.1.15.48.48,0,0,1-.17.1.54.54,0,0,1-.22,0l-.21,0a.72.72,0,0,1-.19-.11A.79.79,0,0,1,572.49,410.42Z" transform="translate(-362.38 -333.09)"/><g class="cls-6"><path class="cls-7" d="M575.42,360.25l.61,1,6.8-2.41-.61-1Zm1.22,2.07.6,1L584,361l-.61-1Zm10.25-3.55a.29.29,0,0,0-.17.17l-.26.72,1.78.65.27-.72a.33.33,0,0,0-.24-.4l-1.11-.4A.43.43,0,0,0,586.89,358.77Zm-.58,1.31-1.6,4.36.62,1.06,1.17-.41,1.59-4.36Zm-8.46,4.32.61,1,4.53-1.6-.61-1Z" transform="translate(-362.38 -333.09)"/></g><path class="cls-8" d="M598.06,438.43a2.49,2.49,0,0,1,.35,1,1.87,1.87,0,0,1-.08.89,1.81,1.81,0,0,1-.49.75,2.65,2.65,0,0,1-.9.53,3.08,3.08,0,0,1-1.11.18,2.88,2.88,0,0,1-1.05-.2,3,3,0,0,1-.92-.54,3,3,0,0,1-.7-.84,2.49,2.49,0,0,1-.35-1,1.93,1.93,0,0,1,.07-.9,1.84,1.84,0,0,1,.5-.74,2.46,2.46,0,0,1,.91-.53,3,3,0,0,1,1.1-.18,2.84,2.84,0,0,1,1.05.2,3,3,0,0,1,.92.54A3,3,0,0,1,598.06,438.43Zm-.92.32a2.79,2.79,0,0,0-.49-.61,2,2,0,0,0-.59-.39,1.86,1.86,0,0,0-.66-.14,2.15,2.15,0,0,0-.7.12,1.7,1.7,0,0,0-.58.33,1,1,0,0,0-.3.48,1.38,1.38,0,0,0,0,.61,2.13,2.13,0,0,0,.28.69,2.48,2.48,0,0,0,.49.61,2,2,0,0,0,.59.39,1.85,1.85,0,0,0,.66.13,1.91,1.91,0,0,0,.7-.12,1.55,1.55,0,0,0,.58-.33,1.22,1.22,0,0,0,.3-.48,1.17,1.17,0,0,0,0-.59A2.28,2.28,0,0,0,597.14,438.75ZM600,440.4l-1.84-3.14.51-.18a.29.29,0,0,1,.29.07l.2.22a1.89,1.89,0,0,1,.11-.25,1.28,1.28,0,0,1,.17-.22,1,1,0,0,1,.22-.19,1.79,1.79,0,0,1,.31-.15,1.5,1.5,0,0,1,.55-.08,1.25,1.25,0,0,1,.5.11,1.43,1.43,0,0,1,.44.3,1.84,1.84,0,0,1,.36.46l1.17,2-.83.29-1.17-2a.88.88,0,0,0-.4-.39.65.65,0,0,0-.53,0,.86.86,0,0,0-.35.23,1.23,1.23,0,0,0-.21.37l1.33,2.27Zm5-1.69a1.16,1.16,0,0,1-.82,0,1.26,1.26,0,0,1-.62-.55l-1-1.76-.35.12a.23.23,0,0,1-.14,0,.21.21,0,0,1-.12-.11l-.17-.3.5-.27-.33-.92a.16.16,0,0,1,0-.12.21.21,0,0,1,.1-.08l.43-.15.58,1,.9-.32.31.54-.9.32,1,1.7a.44.44,0,0,0,.21.2.34.34,0,0,0,.26,0l.12-.06.07-.07,0-.06.05,0h.07l.08,0,.46.28a1,1,0,0,1-.29.36A1.7,1.7,0,0,1,605,438.71Zm-.83-3.56.66-.23a.28.28,0,0,1,.18,0,.31.31,0,0,1,.14.07l1.47,1.51a2.4,2.4,0,0,1,.22.24l.21.25c0-.1-.06-.19-.08-.29s-.05-.2-.07-.3l-.41-1.89a.15.15,0,0,1,0-.13.2.2,0,0,1,.11-.09l.37-.13a.33.33,0,0,1,.17,0,.31.31,0,0,1,.14.07l1.57,1.52.22.23.22.22c0-.09-.07-.19-.1-.28a2.13,2.13,0,0,1-.09-.3l-.47-1.86a.13.13,0,0,1,0-.13.23.23,0,0,1,.12-.09l.63-.22.75,3.53-.67.23c-.07,0-.15,0-.23-.08l-1.68-1.59-.16-.16-.15-.17c0,.07,0,.13.07.2l0,.2.43,2a.15.15,0,0,1-.1.2l-.63.23Zm7.1-2.58a2.11,2.11,0,0,1,.65-.11,1.76,1.76,0,0,1,.64.11,1.87,1.87,0,0,1,.57.34,2.34,2.34,0,0,1,.46.56.93.93,0,0,1,.07.15.22.22,0,0,1,0,.1l0,.07-.09,0-2.12.75a1.46,1.46,0,0,0,.7.61,1.13,1.13,0,0,0,.79,0,1.35,1.35,0,0,0,.32-.17,1.11,1.11,0,0,0,.19-.18,1.77,1.77,0,0,0,.14-.17.36.36,0,0,1,.14-.1h.09l.1,0,.4.19a1.46,1.46,0,0,1-.16.36,1.55,1.55,0,0,1-.6.5,2.72,2.72,0,0,1-.35.16,2.34,2.34,0,0,1-.73.13,2.06,2.06,0,0,1-.73-.14,2.09,2.09,0,0,1-.66-.4,2.55,2.55,0,0,1-.56-.68,2.09,2.09,0,0,1-.24-.64,1.27,1.27,0,0,1,.36-1.13A2,2,0,0,1,611.25,432.57Zm.34.54a.69.69,0,0,0-.46.39.86.86,0,0,0,0,.62l1.55-.55a1.79,1.79,0,0,0-.2-.26.8.8,0,0,0-.27-.18.71.71,0,0,0-.32-.07A.87.87,0,0,0,611.59,433.11Zm3.68,1.89-1.83-3.14.48-.17a.3.3,0,0,1,.2,0,.51.51,0,0,1,.16.12l.27.36a1.31,1.31,0,0,1,.16-.61.8.8,0,0,1,.46-.36.9.9,0,0,1,.48-.05l.23.61a.14.14,0,0,1,0,.09s0,0-.08.06l-.15,0a.64.64,0,0,0-.24.06.67.67,0,0,0-.37.28.94.94,0,0,0-.09.49l1.15,2Zm3.33.06-2.43-4.17.5-.18a.43.43,0,0,1,.16,0,.2.2,0,0,1,.13.08l.24.27a1.34,1.34,0,0,1,.27-.53,1.22,1.22,0,0,1,.55-.35,1.43,1.43,0,0,1,.58-.08,1.82,1.82,0,0,1,.58.17,2.07,2.07,0,0,1,.55.41,3.1,3.1,0,0,1,.5.65,2.44,2.44,0,0,1,.28.69,1.49,1.49,0,0,1,0,.63,1.13,1.13,0,0,1-.26.51,1.32,1.32,0,0,1-.54.34,1.53,1.53,0,0,1-.54.09,1.71,1.71,0,0,1-.49-.1l.75,1.29Zm-.51-4.2a.86.86,0,0,0-.39.26,1,1,0,0,0-.17.4l.82,1.41a1.1,1.1,0,0,0,.44.11,1,1,0,0,0,.39-.06.85.85,0,0,0,.3-.18.54.54,0,0,0,.15-.29.89.89,0,0,0,0-.39,2.55,2.55,0,0,0-.22-.5,2.39,2.39,0,0,0-.33-.44,1.12,1.12,0,0,0-.32-.27.62.62,0,0,0-.32-.09A.88.88,0,0,0,618.09,430.86Z" transform="translate(-362.38 -333.09)"/><path class="cls-9" d="M590.18,434.82l26.33-9.33a7.75,7.75,0,0,1,8.92,3.27h0a4.91,4.91,0,0,1-2.7,7.38l-26.32,9.32a7.75,7.75,0,0,1-8.93-3.27h0A4.9,4.9,0,0,1,590.18,434.82Z" transform="translate(-362.38 -333.09)"/><path class="cls-10" d="M567.32,452l-.69.25a.46.46,0,0,1-.23,0,.52.52,0,0,1-.18-.1l-.89-.78-2,.71.17,1a.26.26,0,0,1,0,.17.27.27,0,0,1-.16.13l-.7.24-.69-5.1.92-.32Zm-4.11-.56,1.55-.55-1.45-1.26-.23-.2c-.08-.08-.17-.16-.26-.26,0,.12,0,.23.07.33a1.66,1.66,0,0,1,.05.26Zm3.88-3.21a1.89,1.89,0,0,1,.44-.11,1.55,1.55,0,0,1,.43,0l1-.35.17.28a.18.18,0,0,1,0,.12s0,.07-.1.11l-.28.16a1.06,1.06,0,0,1,.15.15.83.83,0,0,1,.13.18.91.91,0,0,1,.14.46.75.75,0,0,1-.09.41,1.15,1.15,0,0,1-.31.36,1.88,1.88,0,0,1-.49.26,2.6,2.6,0,0,1-.4.1.24.24,0,0,0,0,.26.22.22,0,0,0,.18.1.94.94,0,0,0,.28,0,3.68,3.68,0,0,0,.37-.11l.42-.12a3.29,3.29,0,0,1,.43-.09,1.48,1.48,0,0,1,.42,0,.9.9,0,0,1,.39.13,1.1,1.1,0,0,1,.31.33.89.89,0,0,1,.12.45,1,1,0,0,1-.12.46,1.47,1.47,0,0,1-.37.43,2.34,2.34,0,0,1-.65.35,3.71,3.71,0,0,1-.72.17,2.25,2.25,0,0,1-.59,0,1.28,1.28,0,0,1-.43-.16.83.83,0,0,1-.28-.28.52.52,0,0,1-.07-.43.84.84,0,0,1,.27-.38.63.63,0,0,1-.3-.1.53.53,0,0,1-.24-.25.47.47,0,0,1-.06-.15.55.55,0,0,1,0-.18.7.7,0,0,1,.06-.19.72.72,0,0,1,.13-.19,1.38,1.38,0,0,1-.61-.2,1.14,1.14,0,0,1-.45-.45,1,1,0,0,1-.14-.45.77.77,0,0,1,.1-.42,1,1,0,0,1,.31-.36A1.58,1.58,0,0,1,567.09,448.21Zm2.86,3a.32.32,0,0,0-.15-.13.66.66,0,0,0-.21,0l-.28,0-.3.08-.33.1-.34.09a.67.67,0,0,0-.13.25.39.39,0,0,0,0,.25.4.4,0,0,0,.13.13.48.48,0,0,0,.22.08,1,1,0,0,0,.3,0,2.11,2.11,0,0,0,.41-.11,1.61,1.61,0,0,0,.37-.17.93.93,0,0,0,.23-.19.31.31,0,0,0,.08-.19A.34.34,0,0,0,570,451.22Zm-2-1.46a.89.89,0,0,0,.24-.14.41.41,0,0,0,.13-.17.44.44,0,0,0,0-.2.58.58,0,0,0-.08-.22.76.76,0,0,0-.37-.32.79.79,0,0,0-.54,0,.58.58,0,0,0-.38.3.51.51,0,0,0,.07.42.9.9,0,0,0,.15.19.94.94,0,0,0,.22.12.66.66,0,0,0,.25,0A1,1,0,0,0,568,449.76Zm2.28-2.62,1.84,3.15-.83.29-1.84-3.14Zm-.41-1a.56.56,0,0,1,.06.2.4.4,0,0,1,0,.19.45.45,0,0,1-.11.17.54.54,0,0,1-.18.11.58.58,0,0,1-.23,0,.85.85,0,0,1-.22,0l-.2-.11a.8.8,0,0,1-.15-.17.58.58,0,0,1-.07-.21.4.4,0,0,1,0-.19.49.49,0,0,1,.29-.27.45.45,0,0,1,.23,0,.62.62,0,0,1,.23,0,.56.56,0,0,1,.2.11A.64.64,0,0,1,569.87,446.18Zm1.4-1.09,2.66,4.55-.82.3-2.67-4.56Zm3.15.53a1.87,1.87,0,0,1,.65-.12,2,2,0,0,1,.64.11,2.1,2.1,0,0,1,.57.34,2.21,2.21,0,0,1,.46.57.61.61,0,0,1,.07.14.13.13,0,0,1,0,.1.09.09,0,0,1,0,.07.15.15,0,0,1-.08,0l-2.12.76a1.53,1.53,0,0,0,.7.61,1.13,1.13,0,0,0,.79,0,1.35,1.35,0,0,0,.51-.35l.14-.16a.31.31,0,0,1,.13-.1.18.18,0,0,1,.1,0l.1,0,.4.2a1.39,1.39,0,0,1-.16.35,1.55,1.55,0,0,1-.6.5,1.89,1.89,0,0,1-.36.16,2,2,0,0,1-.72.13,2.29,2.29,0,0,1-.73-.13,2.53,2.53,0,0,1-.66-.4,2.6,2.6,0,0,1-.56-.69,1.62,1.62,0,0,1-.24-.64,1.37,1.37,0,0,1,0-.61,1.16,1.16,0,0,1,.32-.51A1.58,1.58,0,0,1,574.42,445.62Zm.33.53a.69.69,0,0,0-.45.39.81.81,0,0,0,.05.62l1.55-.55a1.71,1.71,0,0,0-.21-.26,1.1,1.1,0,0,0-.26-.18.88.88,0,0,0-.32-.07A1,1,0,0,0,574.75,446.15Z" transform="translate(-362.38 -333.09)"/><path class="cls-11" d="M558.71,446l14.81-5.25a7.71,7.71,0,0,1,8.87,3.25h0a4.87,4.87,0,0,1-2.68,7.33l-14.82,5.25A7.71,7.71,0,0,1,556,453.3h0A4.88,4.88,0,0,1,558.71,446Z" transform="translate(-362.38 -333.09)"/><polygon class="cls-1" points="59.66 156.66 74.42 151.43 82.32 164.95 67.56 170.18 59.66 156.66"/><polygon class="cls-1" points="71.21 152.57 85.97 147.34 93.87 160.86 79.11 166.08 71.21 152.57"/><polygon class="cls-1" points="83.4 148.25 98.16 143.02 106.06 156.54 91.3 161.76 83.4 148.25"/></svg>