<svg width="34" height="24" viewBox="0 0 34 24" fill="none" xmlns="http://www.w3.org/2000/svg">
<path d="M32.4133 6.06647L17.8853 1.11008C17.0933 0.83961 16.24 0.83961 15.448 1.11008L0.92 6.06647C-0.306667 6.4835 -0.306667 8.28479 0.92 8.70182L3.45198 9.56658C2.89598 10.3287 2.55465 11.26 2.52132 12.2779C2.01998 12.5976 1.66666 13.1732 1.66666 13.8607C1.66666 14.4842 1.96268 15.0092 2.38802 15.345L1.05867 21.9881C0.942671 22.565 1.33865 23.1139 1.87198 23.1139H4.79467C5.32801 23.1139 5.72265 22.565 5.60799 21.9881L4.27734 15.345C4.70401 15.0092 4.99999 14.4842 4.99999 13.8607C4.99999 13.1919 4.66266 12.6323 4.184 12.3072C4.224 11.4385 4.62397 10.671 5.26131 10.1834L15.448 13.6582C15.92 13.8194 16.8253 14.0206 17.8853 13.6582L32.4133 8.7032C33.64 8.28484 33.64 6.48483 32.4133 6.06647ZM18.3747 15.4276C16.888 15.9339 15.6226 15.6541 14.9586 15.4276L7.40535 12.8508L6.66666 19.4126C6.66666 21.4564 11.144 23.1139 16.6667 23.1139C22.1893 23.1139 26.6667 21.4564 26.6667 19.4126L25.928 12.8508L18.3747 15.4276Z" fill="#F6F8FD"/>
</svg>
