<svg width="23" height="25" viewBox="0 0 23 25" fill="none" xmlns="http://www.w3.org/2000/svg">
<path d="M22.6816 15.8186L20.6204 14.6288C20.8284 13.5069 20.8284 12.3571 20.6204 11.2353L22.6816 10.0454C22.919 9.90955 23.0257 9.62976 22.9483 9.36862C22.411 7.64721 21.4963 6.08962 20.3017 4.79457C20.1177 4.59605 19.8177 4.5481 19.5857 4.68267L17.5243 5.87248C16.6577 5.12769 15.6616 4.55213 14.5816 4.17507V1.80083C14.5816 1.53036 14.3936 1.29318 14.127 1.23589C12.351 0.83885 10.5324 0.858835 8.84303 1.23589C8.5777 1.29318 8.38836 1.53036 8.38836 1.80083V4.18035C7.3137 4.56274 6.31771 5.13705 5.44704 5.87784L3.38967 4.68804C3.15367 4.55214 2.85769 4.59612 2.67369 4.79864C1.47902 6.08969 0.564374 7.6472 0.0270413 9.3726C-0.0556253 9.63374 0.0563096 9.91487 0.293643 10.0494L2.355 11.2392C2.147 12.3611 2.147 13.5122 2.355 14.6341L0.293643 15.8239C0.0563096 15.9584 -0.0502919 16.2395 0.0270413 16.5007C0.564374 18.2221 1.47902 19.7783 2.67369 21.0747C2.85769 21.2718 3.15767 21.3212 3.38967 21.1853L5.45103 19.9954C6.31769 20.7402 7.31365 21.3159 8.39365 21.6929V24.0725C8.39365 24.3429 8.58166 24.5801 8.84832 24.6374C10.6243 25.0344 12.443 25.0145 14.1323 24.6374C14.3977 24.5801 14.587 24.3429 14.587 24.0725V21.6929C15.6617 21.3105 16.6577 20.7362 17.5283 19.9954L19.5897 21.1853C19.827 21.3212 20.1217 21.2772 20.3057 21.0747C21.5017 19.7836 22.4163 18.2261 22.9523 16.5007C23.0257 16.2342 22.919 15.9545 22.6816 15.8186ZM11.4857 16.8005C9.35103 16.8005 7.61371 15.0644 7.61371 12.9313C7.61371 10.7995 9.35103 9.0635 11.4857 9.0635C13.619 9.0635 15.3564 10.7995 15.3564 12.9313C15.3564 15.0644 13.619 16.8005 11.4857 16.8005Z" fill="white"/>
</svg>
