<svg width="31" height="25" viewBox="0 0 31 25" fill="none" xmlns="http://www.w3.org/2000/svg">
<path d="M25.0828 21.4172H5.58415C5.17081 21.4172 4.8335 21.7543 4.8335 22.166V23.6662C4.8335 24.0779 5.17081 24.415 5.58415 24.415H25.0828C25.4962 24.415 25.8335 24.0779 25.8335 23.6662V22.166C25.8335 21.7543 25.4962 21.4172 25.0828 21.4172ZM28.0828 6.42822C26.8415 6.42822 25.8335 7.43547 25.8335 8.67723C25.8335 9.00898 25.9082 9.31807 26.0402 9.60452L22.6455 11.6364C21.9242 12.0681 20.9908 11.8243 20.5735 11.0942L16.7535 4.41367C17.2548 4.00197 17.5841 3.38377 17.5841 2.68162C17.5841 1.43986 16.5762 0.432617 15.3335 0.432617C14.0908 0.432617 13.0828 1.43986 13.0828 2.68162C13.0828 3.38377 13.4122 4.00197 13.9135 4.41367L10.0935 11.0942C9.67617 11.8243 8.73882 12.0681 8.02148 11.6364L4.63216 9.60452C4.75883 9.3234 4.83887 9.00898 4.83887 8.67723C4.83887 7.43547 3.8308 6.42822 2.58813 6.42822C1.34547 6.42822 0.333496 7.43547 0.333496 8.67723C0.333496 9.91765 1.34148 10.9249 2.58415 10.9249C2.70548 10.9249 2.82684 10.9063 2.94417 10.8876L6.3335 19.9183H24.3335L27.7228 10.8876C27.8402 10.9063 27.9615 10.9249 28.0828 10.9249C29.3255 10.9249 30.3335 9.91765 30.3335 8.67723C30.3335 7.43547 29.3255 6.42822 28.0828 6.42822Z" fill="white"/>
</svg>
