<svg width="34" height="24" viewBox="0 0 34 24" fill="none" xmlns="http://www.w3.org/2000/svg">
<path d="M9.99999 12.1347C13.224 12.1347 15.8333 9.5273 15.8333 6.30565C15.8333 3.084 13.224 0.476562 9.99999 0.476562C6.776 0.476562 4.16666 3.084 4.16666 6.30565C4.16666 9.5273 6.776 12.1347 9.99999 12.1347ZM14 13.8002H13.568C12.484 14.3211 11.2813 14.6329 9.99999 14.6329C8.71866 14.6329 7.5213 14.3211 6.43196 13.8002H6C2.688 13.8002 0 16.4862 0 19.7958V21.2947C0 22.6737 1.12 23.7929 2.5 23.7929H17.5C18.88 23.7929 20 22.6737 20 21.2947V19.7958C20 16.4862 17.312 13.8002 14 13.8002ZM25 12.1347C27.76 12.1347 30 9.89637 30 7.13838C30 4.38038 27.76 2.14202 25 2.14202C22.24 2.14202 20 4.38038 20 7.13838C20 9.89637 22.24 12.1347 25 12.1347ZM27.5 13.8002H27.3026C26.5786 14.0507 25.812 14.2159 25 14.2159C24.188 14.2159 23.4213 14.0507 22.6973 13.8002H22.5C21.4373 13.8002 20.4586 14.1066 19.5986 14.6023C20.8693 15.9706 21.6667 17.7866 21.6667 19.7958V21.7944C21.6667 21.9089 21.64 22.0182 21.636 22.1275H30.8333C32.2133 22.1275 33.3333 21.0083 33.3333 19.6293C33.3333 16.4076 30.724 13.8002 27.5 13.8002Z" fill="white"/>
</svg>
