<svg width="46" height="38" viewBox="0 0 46 38" fill="none" xmlns="http://www.w3.org/2000/svg">
<path d="M41.4161 0.564941H4.58414C2.23614 0.564941 0.333496 2.61856 0.333496 5.13902V32.6242C0.333496 35.158 2.23614 37.1982 4.58414 37.1982H41.4161C43.7641 37.1982 45.6667 35.158 45.6667 32.6242V5.13902C45.6667 2.61856 43.7641 0.564941 41.4161 0.564941ZM41.4161 5.13902V9.03328C39.4321 10.7803 36.2668 13.4873 29.5001 19.195C28.0094 20.4619 25.0548 23.5023 23.0001 23.4623C20.9455 23.5023 17.9908 20.4619 16.5001 19.195C9.73481 13.4873 6.56947 10.7803 4.58414 9.03328V5.13902H41.4161ZM4.58414 32.6242V14.9142C6.61214 16.6612 9.48949 19.1015 13.8748 22.7956C15.8095 24.4359 19.1988 28.0634 23.0001 28.0367C26.7828 28.0634 30.1281 24.4892 32.1241 22.7956C36.5095 19.1015 39.3881 16.6612 41.4161 14.9142V32.6242H4.58414Z" fill="white"/>
</svg>
